<?xml version="1.0" encoding="utf-8"?>
<!-- Generator: Adobe Illustrator 18.1.1, SVG Export Plug-In . SVG Version: 6.00 Build 0)  -->
<svg version="1.1" id="Layer_1" xmlns="http://www.w3.org/2000/svg" xmlns:xlink="http://www.w3.org/1999/xlink" x="0px" y="0px"
	 viewBox="0 0 1080 1080" enable-background="new 0 0 1080 1080" xml:space="preserve">
<g>
	<defs>
		<rect id="SVGID_1_" x="0" width="1080" height="1080"/>
	</defs>
	<clipPath id="SVGID_2_">
		<use xlink:href="#SVGID_1_"  overflow="visible"/>
	</clipPath>
	<rect x="0" clip-path="url(#SVGID_2_)" fill="none" stroke="#000000" stroke-miterlimit="10" width="1080" height="1080"/>
	<path clip-path="url(#SVGID_2_)" d="M922,481.3c0,189.3-137.3,346.6-317.7,377.7V693.5h-131V859
		c-180.5-31.1-317.7-188.4-317.7-377.7C155.5,269.6,327.1,98,538.8,98C750.4,98,922,269.6,922,481.3"/>
	<path clip-path="url(#SVGID_2_)" fill="#FFFFFF" d="M793.7,481.3c0,140.8-114.1,254.9-254.9,254.9S283.9,622.1,283.9,481.3
		S398,226.4,538.8,226.4S793.7,340.5,793.7,481.3"/>
	<path clip-path="url(#SVGID_2_)" fill="#050505" d="M782,481.3c0,134.3-108.9,243.2-243.2,243.2S295.6,615.6,295.6,481.3
		s108.9-243.2,243.2-243.2S782,347,782,481.3"/>
</g>
<g>
	<path fill="#FFFFFF" d="M277.1,611.4l-3.4-4.3c-0.4-0.5-0.8-0.8-1.4-1c-0.5-0.2-1.1-0.1-1.6,0.1L230,622.6c-0.6,0.2-1,0.6-1.3,1.1
		c-0.3,0.5-0.4,1-0.3,1.7l0.6,5.4l-2.3,0.9l-9.1-22.7c-1.1-2.8-1.9-5.5-2.3-8.1s-0.5-5.1,0-7.4c0.4-2.3,1.3-4.3,2.7-6.1
		c1.4-1.8,3.3-3.2,5.8-4.2c2.7-1.1,5.3-1.6,7.8-1.5c2.5,0,4.8,0.6,7,1.5c2.1,1,4,2.4,5.7,4.2c1.7,1.8,3,4,4,6.4
		c0.2,0.6,0.4,1.2,0.5,2c0.1,0.8,0.2,1.5,0.2,2.3c0,0.8,0,1.6,0,2.4s-0.1,1.5-0.3,2.2l17.8-7.1c0.6-0.2,1-0.6,1.3-1.1
		c0.3-0.5,0.3-1.1,0.3-1.6l-0.8-6l2.3-0.9l10,24.9L277.1,611.4z M244.5,597.8c-0.5-1.2-1.1-2.2-1.9-2.9c-0.8-0.7-1.6-1.3-2.5-1.6
		c-0.9-0.3-1.9-0.6-2.8-0.6c-1-0.1-1.9-0.1-2.8,0c-0.9,0.1-1.8,0.3-2.5,0.5c-0.8,0.2-1.4,0.4-1.9,0.6c-1.6,0.6-3,1.4-4.3,2.3
		c-1.3,0.9-2.4,1.9-3.2,3.2c-0.8,1.2-1.3,2.6-1.4,4.1c-0.1,1.6,0.2,3.3,1,5.2l1.5,3.8l22.4-9c0-0.3-0.1-0.8-0.2-1.2
		c-0.1-0.5-0.2-1-0.4-1.5c-0.1-0.5-0.3-1-0.5-1.5C244.9,598.8,244.7,598.3,244.5,597.8z"/>
</g>
<g>
	<path fill="#FFFFFF" d="M258.4,561.9l-2.2-3.8c-0.3-0.5-0.6-0.8-1.1-1.1c-0.5-0.3-1-0.3-1.6-0.2l-24.5,5.5c-0.3,0.1-0.7,0.2-1,0.3
		s-0.5,0.4-0.8,0.6c-0.2,0.3-0.4,0.6-0.5,0.9c-0.1,0.4-0.2,0.8-0.3,1.3l-0.4,4l-1.9,0.4l-6.9-15.8l8.8-2c-1.1-0.4-2.3-0.8-3.6-1.3
		c-1.2-0.5-2.4-1.1-3.5-1.8s-2.1-1.6-2.9-2.6c-0.8-1-1.4-2.3-1.8-3.9c-0.2-0.8-0.3-1.5-0.4-2.1c-0.1-0.6-0.1-1.1-0.1-1.6
		c0-0.5,0-1,0.1-1.5c0.1-0.5,0.1-0.9,0.2-1.4l12-2.7l0.7,3.3l-2.6,2.4c-0.2,0.2-0.4,0.5-0.5,0.8c-0.1,0.4-0.2,0.7-0.3,1.2
		c-0.1,0.4-0.1,0.9-0.1,1.3c0,0.5,0.1,0.9,0.1,1.3c0.2,0.8,0.4,1.5,0.6,2.2c0.3,0.7,0.6,1.4,1,2c0.4,0.6,0.9,1.2,1.6,1.7
		c0.6,0.5,1.4,1,2.4,1.5l22-4.9c0.6-0.1,1.1-0.4,1.4-0.8c0.3-0.4,0.5-0.9,0.5-1.5l0.2-5.1l2.4-0.5l5.2,23.3L258.4,561.9z"/>
</g>
<g>
	<path fill="#FFFFFF" d="M252,502c0.2,3.2-0.1,6-0.9,8.6c-0.8,2.6-2.1,4.8-3.8,6.7c-1.7,1.9-3.8,3.4-6.3,4.5c-2.5,1.1-5.4,1.8-8.5,2
		c-2.9,0.2-5.7-0.1-8.4-0.8c-2.6-0.7-5-1.9-7-3.6c-2-1.6-3.7-3.7-5-6.2c-1.3-2.5-2-5.4-2.3-8.7c-0.2-3.5,0.1-6.6,1.1-9.3
		c1-2.6,2.4-4.8,4.2-6.6c1.8-1.8,4-3.2,6.5-4.1c2.5-1,5.1-1.5,7.8-1.7c2.9-0.2,5.7,0.1,8.3,0.8c2.6,0.7,5,1.9,7,3.5
		c2,1.6,3.7,3.7,5,6.2C251,495.8,251.8,498.7,252,502z M247.8,501.8c-0.1-1.8-0.7-3.1-1.9-4.2c-1.1-1-2.5-1.8-4.1-2.3
		c-1.6-0.5-3.4-0.8-5.3-0.8c-1.9-0.1-3.7,0-5.5,0.1c-2.1,0.2-4.3,0.4-6.3,0.9s-3.9,1.1-5.6,1.9s-2.9,1.8-3.9,3
		c-1,1.2-1.4,2.7-1.3,4.4c0.1,1.7,0.7,3.1,1.8,4.1c1.1,1,2.5,1.8,4.1,2.3c1.6,0.5,3.4,0.8,5.3,0.9c1.9,0.1,3.7,0.1,5.5-0.1
		c1.9-0.1,3.9-0.4,6-0.8c2.1-0.4,4-1,5.6-1.7c1.7-0.8,3.1-1.8,4.1-3C247.5,505.2,248,503.6,247.8,501.8z"/>
</g>
<g>
	<path fill="#FFFFFF" d="M247.5,474.8l-1-4.2c-0.1-0.6-0.4-1-0.8-1.4c-0.4-0.4-0.9-0.6-1.5-0.6l-29.1-1.9l-0.5,7.5l-4.4-1.4l0.4-6.4
		c-3.7-0.2-7-0.9-9.8-2.1c-2.8-1.2-5.2-2.7-7-4.5c-1.9-1.8-3.2-4-4.1-6.4c-0.9-2.4-1.2-5-1-7.7c0-0.5,0.1-1.1,0.2-1.8
		c0.1-0.7,0.3-1.4,0.5-2.2c0.2-0.8,0.4-1.5,0.7-2.2c0.3-0.7,0.5-1.3,0.8-1.8l7.8,2.4l-0.1,1.2c-0.4,0.7-0.9,1.5-1.3,2.3
		s-0.9,1.7-1.3,2.6s-0.7,1.7-1,2.6c-0.3,0.8-0.4,1.6-0.5,2.3c0,0.7,0.1,1.3,0.4,1.8c0.3,0.5,0.8,0.8,1.6,1.1c1.4,0.4,3.3,0.8,5.7,1
		s5.5,0.5,9.2,0.8l0.7-11.2l4.4,1.6l-0.6,9.7l29.1,1.9c0.6,0,1.2-0.1,1.6-0.4c0.4-0.3,0.7-0.7,0.9-1.3l1.6-4.8l2.4,0.2l-1.6,23.8
		L247.5,474.8z"/>
</g>
<g>
	<path fill="#FFFFFF" d="M256.7,424c-0.6,2.9-1.5,5.5-2.9,7.7c-1.4,2.2-3.1,4.1-5.1,5.5s-4.5,2.3-7.2,2.8c-2.7,0.5-5.7,0.4-9-0.3
		c-2.8-0.5-5.3-1.5-7.6-2.9c-2.3-1.4-4.3-3.2-5.9-5.3c-1.6-2.1-2.7-4.5-3.4-7.2c-0.7-2.7-0.7-5.7-0.1-8.8c0.5-2.7,1.4-5,2.7-6.8
		c1.3-1.9,2.8-3.4,4.5-4.5c1.7-1.1,3.6-1.8,5.5-2.2c2-0.4,3.9-0.4,5.8,0c0.2,0,0.6,0.1,1,0.2c0.4,0.1,0.8,0.2,1.2,0.3
		s0.8,0.2,1.1,0.3c0.4,0.1,0.6,0.2,0.8,0.2l-4.9,25.1c5.1,1,9.1,0.7,12.2-0.9c3.1-1.5,5-4.5,5.9-8.9c0.3-1.4,0.4-2.8,0.4-4
		c0-1.2-0.2-2.4-0.3-3.4c-0.2-1-0.4-1.9-0.7-2.8c-0.3-0.8-0.6-1.6-0.8-2.2l0.2-0.9l3.1,0.6c0.6,1,1.2,2.3,1.7,3.6
		c0.6,1.4,1,2.8,1.4,4.4c0.4,1.6,0.6,3.2,0.7,5C257.2,420.5,257,422.2,256.7,424z M232.7,413.2c-1.7-0.3-3.3-0.6-4.8-0.7
		s-2.8,0-4,0.2c-1.2,0.3-2.1,0.7-2.9,1.4c-0.8,0.7-1.3,1.7-1.5,2.9c-0.2,1.2-0.2,2.4,0.2,3.4c0.4,1.1,1,2,1.9,2.9
		c0.9,0.9,2.1,1.6,3.5,2.3c1.4,0.7,3.1,1.2,4.9,1.7L232.7,413.2z"/>
</g>
<g>
	<path fill="#FFFFFF" d="M267.4,386.1c-0.6,1.6-1.1,2.9-1.8,4.2c-0.6,1.2-1.3,2.3-1.9,3.3c-0.6,1-1.3,1.9-1.9,2.7
		c-0.6,0.8-1.2,1.6-1.8,2.4l-11.1-3.9l1.1-3.1l4.8,0.1c0.3,0,0.7-0.1,1-0.2s0.7-0.3,1-0.5c0.3-0.2,0.6-0.4,0.9-0.6
		c0.3-0.2,0.5-0.4,0.8-0.7c0.4-0.4,0.8-0.8,1.4-1.4c0.5-0.6,1-1.2,1.5-1.9c0.5-0.7,1-1.4,1.4-2.2c0.4-0.7,0.8-1.5,1-2.2
		c0.3-0.8,0.5-1.6,0.5-2.3c0.1-0.8,0-1.5-0.3-2.1c-0.3-0.7-0.7-1.3-1.3-1.8c-0.6-0.5-1.4-1-2.5-1.4c-0.9-0.3-1.7-0.4-2.4-0.2
		c-0.7,0.2-1.4,0.6-2.1,1.1c-0.7,0.5-1.3,1.2-1.8,1.9c-0.6,0.7-1.1,1.5-1.6,2.2c-0.8,1.2-1.5,2.2-2.2,3c-0.6,0.8-1.3,1.7-1.9,2.6
		c-0.8,1.1-1.7,2-2.7,2.7c-1,0.7-2,1.3-3.2,1.6c-1.1,0.4-2.3,0.5-3.6,0.4s-2.6-0.3-4-0.8c-1.7-0.6-3.2-1.6-4.4-3
		c-1.2-1.4-2-3-2.5-4.8c-0.5-1.9-0.7-3.9-0.6-6.1c0.1-2.2,0.6-4.4,1.4-6.7c0.5-1.4,1-2.6,1.4-3.6s0.9-2,1.4-2.8s0.9-1.6,1.4-2.4
		c0.5-0.7,1-1.5,1.5-2.4l11.3,3.3l-1.2,3.3l-4.8,0.2c-0.6,0-1.2,0.2-1.8,0.5s-1.1,0.7-1.6,1.1c-0.4,0.4-0.8,0.8-1.2,1.2
		c-0.4,0.5-0.8,1-1.1,1.5c-0.4,0.5-0.7,1.1-1,1.7c-0.3,0.6-0.6,1.2-0.8,1.8c-0.2,0.5-0.3,1-0.3,1.7c0,0.6,0.1,1.3,0.3,1.9
		c0.2,0.6,0.6,1.2,1.1,1.8s1.2,1,2.1,1.3c0.9,0.3,1.8,0.4,2.5,0.3c0.8-0.1,1.4-0.3,2.1-0.7c0.6-0.4,1.2-0.9,1.7-1.4
		c0.5-0.6,1-1.2,1.4-1.8c0.8-1,1.5-1.9,2.2-2.8c0.7-0.9,1.2-1.6,1.7-2.2c0.9-1.2,1.9-2.4,2.9-3.3c1-1,2.1-1.8,3.2-2.4
		c1.1-0.6,2.3-0.9,3.6-1c1.3-0.1,2.6,0.1,4.1,0.6c2.3,0.8,4,2,5.3,3.5c1.3,1.6,2.2,3.3,2.7,5.3c0.5,2,0.6,4.1,0.4,6.4
		C268.7,381.6,268.2,383.9,267.4,386.1z"/>
</g>
<g>
	<path fill="#FFFFFF" d="M283.3,349c-0.8,1.5-1.5,2.8-2.3,3.9c-0.8,1.1-1.6,2.1-2.4,3c-0.8,0.9-1.5,1.7-2.3,2.4
		c-0.7,0.7-1.4,1.4-2.1,2.1l-10.4-5.4l1.5-3l4.8,0.7c0.3,0.1,0.7,0,1.1,0s0.7-0.2,1.1-0.3c0.3-0.1,0.7-0.3,1-0.5
		c0.3-0.2,0.6-0.4,0.8-0.5c0.4-0.3,0.9-0.7,1.5-1.2c0.6-0.5,1.2-1.1,1.8-1.7c0.6-0.6,1.2-1.3,1.7-1.9c0.5-0.7,1-1.3,1.3-2
		c0.4-0.8,0.7-1.5,0.8-2.2c0.2-0.7,0.2-1.4,0-2.1c-0.2-0.7-0.5-1.3-1-2c-0.5-0.6-1.3-1.2-2.3-1.7c-0.8-0.4-1.6-0.6-2.4-0.5
		c-0.8,0.1-1.5,0.4-2.2,0.8c-0.7,0.4-1.4,1-2.1,1.6c-0.7,0.7-1.3,1.3-1.9,2c-1,1-1.8,1.9-2.6,2.7c-0.7,0.7-1.5,1.5-2.3,2.3
		c-1,1-2,1.7-3.1,2.3c-1.1,0.6-2.2,1-3.4,1.2c-1.2,0.2-2.4,0.2-3.7-0.1s-2.6-0.7-3.9-1.4c-1.6-0.9-2.9-2-3.9-3.5
		c-1-1.5-1.6-3.2-1.8-5.1c-0.3-1.9-0.2-3.9,0.2-6.1c0.4-2.2,1.2-4.3,2.3-6.4c0.7-1.3,1.3-2.4,1.9-3.4c0.6-0.9,1.2-1.8,1.7-2.6
		c0.6-0.8,1.1-1.5,1.7-2.2c0.6-0.7,1.2-1.4,1.8-2.1l10.7,4.9l-1.6,3.1l-4.8-0.5c-0.6-0.1-1.2,0-1.9,0.2s-1.2,0.5-1.8,0.9
		c-0.4,0.3-0.9,0.7-1.3,1.1c-0.4,0.4-0.9,0.8-1.3,1.3c-0.4,0.5-0.9,1-1.2,1.5c-0.4,0.5-0.7,1.1-1,1.6c-0.2,0.4-0.4,1-0.5,1.6
		c-0.1,0.6-0.1,1.3,0,1.9s0.4,1.3,0.8,1.9c0.4,0.6,1.1,1.2,1.9,1.6c0.9,0.5,1.7,0.7,2.5,0.7c0.8,0,1.5-0.1,2.1-0.4
		c0.7-0.3,1.3-0.7,1.8-1.2c0.6-0.5,1.1-1,1.6-1.5c0.9-0.9,1.7-1.7,2.5-2.5c0.8-0.8,1.5-1.4,2-2c1.1-1.1,2.2-2.1,3.4-2.9
		c1.1-0.8,2.3-1.5,3.5-1.9s2.4-0.6,3.7-0.5c1.3,0.1,2.6,0.5,4,1.2c2.1,1.1,3.7,2.5,4.8,4.2c1.1,1.7,1.7,3.6,1.9,5.6
		c0.2,2,0,4.2-0.5,6.4C285.3,344.8,284.4,346.9,283.3,349z"/>
</g>
<g>
	<path fill="#FFFFFF" d="M260.1,290.3c-0.5,0.8-1.2,1.4-1.9,1.9c-0.7,0.5-1.5,0.8-2.4,1c-0.8,0.2-1.7,0.2-2.6,0
		c-0.9-0.2-1.7-0.5-2.5-1c-0.8-0.5-1.4-1.1-1.8-1.9c-0.5-0.7-0.8-1.5-0.9-2.4c-0.1-0.8-0.1-1.7,0.1-2.6c0.2-0.9,0.5-1.7,1.1-2.5
		c0.5-0.8,1.2-1.4,2-1.9c0.8-0.5,1.6-0.8,2.4-1c0.8-0.2,1.7-0.2,2.6-0.1c0.9,0.2,1.7,0.5,2.4,1c0.8,0.5,1.4,1.2,1.9,1.9
		c0.5,0.8,0.8,1.6,0.9,2.4c0.1,0.9,0.1,1.7-0.1,2.6C261,288.6,260.7,289.5,260.1,290.3z M292.2,325.7l1.3-4.3
		c0.2-0.5,0.2-1.1,0.1-1.6c-0.1-0.5-0.5-0.9-1-1.3l-20.8-14.2c-0.6-0.4-1.2-0.6-1.8-0.6c-0.6,0-1.3,0.4-2.2,0.9l-2.9,2.1l-1.6-1.1
		l6.9-15.9l28.7,19.6c0.5,0.4,1,0.5,1.5,0.4c0.5-0.1,1-0.3,1.5-0.6l3.3-2.5l2,1.4l-12.9,18.9L292.2,325.7z"/>
</g>
<g>
	<path fill="#FFFFFF" d="M324.5,289c-2.1,2.4-4.4,4.1-6.8,5.4c-2.4,1.2-4.9,1.8-7.4,1.9c-2.5,0.1-5.1-0.4-7.6-1.4
		c-2.6-1-5-2.6-7.4-4.7c-2.2-2-3.9-4.1-5.3-6.5c-1.3-2.4-2.1-4.9-2.3-7.5c-0.3-2.6,0.1-5.2,1-7.9c0.9-2.7,2.4-5.2,4.7-7.7
		c2.4-2.6,4.8-4.5,7.4-5.7c2.6-1.1,5.1-1.7,7.7-1.6s5,0.6,7.4,1.8c2.4,1.1,4.6,2.6,6.7,4.4c2.2,1.9,3.9,4.1,5.2,6.5
		c1.3,2.4,2.1,4.9,2.4,7.5c0.3,2.6-0.1,5.2-1,7.9C328.3,284,326.7,286.5,324.5,289z M321.8,285.8c1.2-1.3,1.7-2.7,1.7-4.2
		c0-1.5-0.5-3-1.3-4.5c-0.8-1.5-1.8-3-3.1-4.4c-1.3-1.4-2.6-2.7-3.9-3.9c-1.6-1.4-3.3-2.7-5-3.9c-1.8-1.2-3.5-2.1-5.2-2.7
		c-1.7-0.6-3.3-0.8-4.9-0.7c-1.5,0.2-2.9,0.9-4,2.2c-1.2,1.3-1.7,2.7-1.7,4.2c0,1.5,0.5,3,1.2,4.5c0.8,1.5,1.8,3,3.1,4.4
		c1.3,1.4,2.5,2.7,3.8,3.9c1.4,1.3,3,2.5,4.7,3.8c1.7,1.2,3.4,2.2,5.2,2.8s3.4,1,5,0.8S320.5,287.2,321.8,285.8z"/>
</g>
<g>
	<path fill="#FFFFFF" d="M341.2,265.6l2.4-3.6c0.3-0.5,0.5-0.9,0.5-1.5c0-0.5-0.1-1-0.5-1.5l-15.5-19.8c-0.4-0.6-1-0.9-1.6-1.1
		c-0.6-0.1-1.4-0.1-2.3,0.2l-3.4,1.1l-1.2-1.6l11.2-12.9l4.1,5.3c-0.1-1.9,0-3.5,0.3-4.9c0.3-1.4,0.7-2.6,1.2-3.7
		c0.5-1.1,1.2-2,1.9-2.8c0.7-0.8,1.5-1.5,2.3-2.1c1.4-1.1,2.9-1.9,4.4-2.5c1.6-0.5,3.1-0.7,4.7-0.5c1.6,0.2,3.2,0.8,4.8,1.8
		c1.6,1,3.2,2.5,4.8,4.5l12.8,16.3c0.4,0.5,0.9,0.9,1.4,0.9c0.5,0.1,1.1,0.1,1.6-0.1l3.6-1.2l1.5,1.9L363,251.6l-1.5-1.9l2.1-3.3
		c0.3-0.4,0.4-0.9,0.4-1.4c0-0.5-0.2-1.1-0.6-1.6L353,229.9c-1.1-1.4-2.2-2.7-3.2-3.7c-1-1-1.9-1.7-2.9-2.2c-1-0.4-1.9-0.6-2.9-0.4
		c-1,0.2-2.1,0.7-3.3,1.6c-0.5,0.4-1,0.8-1.5,1.3c-0.5,0.5-0.9,1-1.3,1.6c-0.4,0.6-0.7,1.2-0.9,2c-0.2,0.7-0.2,1.5-0.1,2.4
		l15.4,19.6c0.4,0.5,0.8,0.8,1.3,0.8c0.5,0.1,1,0,1.6-0.1l3.3-0.9l1.5,1.9l-17.3,13.6L341.2,265.6z"/>
</g>
<g>
	<path fill="#FFFFFF" d="M395.8,230.5c-1.4,0.8-2.9,1.2-4.3,1.3c-1.4,0.1-2.8-0.1-4.1-0.5c-1.3-0.4-2.5-1.1-3.6-2
		c-1.1-0.9-1.9-2-2.6-3.3c-0.8-1.5-1.3-2.9-1.4-4.4s0-2.9,0.4-4.2c0.4-1.4,1-2.7,1.7-3.9c0.8-1.2,1.7-2.4,2.7-3.5
		c1-1.1,2.1-2,3.2-2.9c1.1-0.9,2.2-1.6,3.3-2.2c0.2-0.1,0.5-0.3,0.9-0.5c0.4-0.2,0.8-0.4,1.3-0.6c0.5-0.2,0.9-0.4,1.3-0.6
		c0.4-0.2,0.7-0.4,1-0.5l-2.8-5.3c-0.6-1.2-1.2-2.1-1.7-2.8c-0.5-0.7-1.1-1.1-1.6-1.4c-0.6-0.2-1.2-0.3-1.8-0.1
		c-0.6,0.1-1.4,0.4-2.2,0.9c-1,0.5-1.9,1.3-2.7,2.3c-0.8,1-1.6,2.1-2.3,3.2c-0.7,1.2-1.4,2.3-1.9,3.5c-0.6,1.2-1.1,2.2-1.5,3
		l-1.2,0.6l-5.3-6.3c0.6-0.8,1.3-1.7,2.1-2.6s1.7-1.8,2.7-2.8c1-0.9,2.1-1.8,3.3-2.7c1.2-0.9,2.5-1.7,3.9-2.5
		c1.7-0.9,3.5-1.6,5.5-2.2c1.9-0.6,3.9-0.8,5.7-0.6c1.9,0.1,3.6,0.7,5.3,1.7c1.7,1,3.1,2.6,4.2,4.8l9.5,18.1
		c0.2,0.4,0.4,0.7,0.7,0.9c0.3,0.2,0.6,0.4,1,0.4c0.4,0.1,0.8,0.1,1.2,0c0.4-0.1,0.9-0.3,1.4-0.5c0.2-0.1,0.6-0.4,1.2-0.8
		c0.5-0.4,1-0.8,1.5-1.2l0.7-0.4l1.4,2.5c-0.2,0.4-0.5,1-1,1.7c-0.5,0.7-1,1.4-1.7,2.2c-0.7,0.8-1.4,1.5-2.2,2.2
		c-0.8,0.7-1.6,1.3-2.4,1.7c-1.1,0.6-2.1,1-3.1,1.3c-1,0.3-2,0.4-2.9,0.3c-0.9-0.1-1.8-0.4-2.5-1c-0.8-0.6-1.5-1.4-2.1-2.6
		c-0.2,1.8-0.5,3.4-1.1,4.7c-0.6,1.3-1.3,2.5-2,3.4c-0.8,0.9-1.6,1.7-2.5,2.3C397.4,229.5,396.6,230,395.8,230.5z M398.5,222
		c0.5-0.3,1-0.6,1.5-1s0.9-0.8,1.3-1.3c0.4-0.5,0.7-1.1,0.9-1.7c0.2-0.6,0.4-1.3,0.4-2.1l-5.5-10.4c-1.6,0.9-3.1,1.8-4.2,2.8
		c-1.2,1-2.1,2-2.7,3.2c-0.6,1.1-0.9,2.3-0.9,3.5c0,1.2,0.3,2.5,1,3.8c0.6,1.1,1.3,2,2,2.6c0.7,0.6,1.4,1,2.1,1.2s1.4,0.2,2.1,0.1
		C397.2,222.5,397.9,222.3,398.5,222z"/>
</g>
<g>
	<path fill="#FFFFFF" d="M424.7,212.2l3.3-2.7c0.5-0.4,0.8-0.9,1-1.4c0.1-0.5,0.1-1-0.1-1.5l-16.6-43.3c-0.3-0.7-0.6-1.2-1.2-1.5
		c-0.5-0.3-1.3-0.5-2.3-0.4l-4,0.2l-0.7-1.8l14.9-9.6l20.2,52.5c0.2,0.6,0.6,1,1,1.2c0.4,0.2,1,0.3,1.6,0.3l3.8,0l0.9,2.3l-20.9,8
		L424.7,212.2z"/>
</g>
<text transform="matrix(0.9606 -0.2778 0.2778 0.9606 447.916 205.5062)" fill="#FFFFFF" font-family="'SitkaBanner-Bold'" font-size="92.85"> </text>
<g>
	<path fill="#FFFFFF" d="M472.5,196.3l4.9-2.5c0.6-0.3,1-0.7,1.2-1.1c0.3-0.5,0.3-1,0.2-1.6l-8.2-43.1c-0.1-0.6-0.4-1.1-0.9-1.5
		c-0.5-0.4-1-0.6-1.5-0.6l-5.4-0.5l-0.5-2.5L488,138l0.5,2.5l-4.8,2.4c-0.5,0.2-0.9,0.6-1.2,1.1c-0.3,0.5-0.4,1.1-0.3,1.7l8.2,43.1
		c0.1,0.6,0.4,1.1,0.8,1.4c0.4,0.3,1,0.5,1.6,0.6l5.4,0.5l0.5,2.5l-25.6,4.9L472.5,196.3z"/>
</g>
<g>
	<path fill="#FFFFFF" d="M516.1,189.3l6-1.7c0.6-0.2,1.1-0.5,1.4-0.9c0.3-0.5,0.5-1,0.5-1.6l-1.6-45.9l-12.1,0.4
		c-0.5,0-0.9,0.2-1.2,0.5c-0.2,0.3-0.4,0.6-0.5,1.1l-3.1,9.2l-2.8,0.1l-0.5-15.1l51.8-1.8l0.5,15.1l-2.8,0.1l-3.7-9
		c-0.2-0.4-0.3-0.7-0.6-1c-0.2-0.3-0.6-0.4-1.1-0.4l-12.3,0.4l1.6,45.9c0,0.6,0.2,1.2,0.7,1.6c0.4,0.4,0.9,0.7,1.4,0.8l6.1,1.3
		l0.1,2.5l-27.8,1L516.1,189.3z"/>
</g>
<text transform="matrix(0.9947 0.1029 -0.1029 0.9947 558.4064 191.6236)" fill="#FFFFFF" font-family="'SitkaBanner-Bold'" font-size="92.8496"> </text>
<g>
	<path fill="#FFFFFF" d="M605,199.7c-1.6-0.4-3.2-0.8-4.7-1.4c-1.5-0.6-3-1.2-4.5-1.9c-1.4-0.7-2.8-1.4-4.2-2.2
		c-1.4-0.8-2.7-1.5-4-2.3l2.7-15.9l2.7,0.6l1.7,8.8c0,0.2,0.1,0.4,0.2,0.6c0.1,0.2,0.2,0.5,0.3,0.7c0.1,0.2,0.3,0.5,0.4,0.7
		c0.1,0.2,0.3,0.4,0.4,0.5c0.8,0.9,1.8,1.7,2.8,2.5c1.1,0.8,2.2,1.5,3.3,2.1c1.1,0.6,2.2,1.2,3.2,1.6c1,0.4,1.9,0.8,2.7,0.9
		c1.5,0.4,3,0.4,4.3,0.2c1.3-0.2,2.5-0.6,3.5-1.3c1-0.6,1.9-1.5,2.6-2.5c0.7-1,1.2-2.2,1.5-3.4c0.2-1,0.3-2,0.2-2.9
		c-0.1-0.9-0.3-1.8-0.8-2.6c-0.4-0.8-1-1.6-1.7-2.4c-0.7-0.8-1.7-1.5-2.7-2.3c-0.9-0.6-1.9-1.2-2.8-1.8c-0.9-0.5-1.9-1.1-2.8-1.6
		c-0.9-0.5-1.9-1-2.8-1.6c-0.9-0.5-1.8-1.1-2.7-1.8c-1.5-1.1-2.7-2.2-3.7-3.6c-1-1.3-1.8-2.7-2.3-4.2c-0.5-1.5-0.9-3-1-4.6
		c-0.1-1.6,0-3.2,0.4-4.8c0.4-1.5,0.9-2.9,1.7-4.2c0.8-1.3,1.8-2.4,2.9-3.4c1.1-1,2.4-1.9,3.9-2.6c1.4-0.7,3-1.3,4.6-1.6
		s3.4-0.5,5.1-0.5c1.8,0,3.6,0.2,5.5,0.7c1.6,0.4,3.2,0.8,4.8,1.3c1.6,0.5,3,1.1,4.5,1.6c1.4,0.6,2.7,1.2,4,1.8
		c1.2,0.6,2.4,1.3,3.4,1.9l-3.4,14.5l-2.7-0.6l-1.4-8.2c-0.1-0.4-0.2-0.8-0.5-1.2c-0.3-0.4-0.5-0.8-0.8-1c-0.5-0.6-1.2-1.2-2.1-1.8
		c-0.8-0.6-1.7-1.1-2.6-1.5c-0.9-0.5-1.8-0.8-2.7-1.2c-0.9-0.3-1.7-0.6-2.3-0.7c-1.3-0.3-2.6-0.4-3.8-0.2c-1.2,0.2-2.2,0.5-3.2,1.1
		c-0.9,0.5-1.7,1.2-2.3,2.1c-0.6,0.8-1,1.7-1.3,2.7c-0.2,1-0.4,2.1-0.3,3c0,1,0.2,1.9,0.6,2.8c0.4,0.9,1,1.8,1.7,2.6
		c0.8,0.8,1.7,1.6,3,2.4c0.9,0.6,1.8,1.1,2.7,1.6c0.9,0.5,1.8,1,2.7,1.5c0.9,0.5,1.8,1,2.7,1.6c0.9,0.6,1.9,1.2,2.9,1.9
		c1.2,0.8,2.3,1.9,3.4,3c1.1,1.2,2,2.5,2.7,3.9c0.7,1.5,1.2,3,1.4,4.8c0.2,1.7,0.1,3.6-0.3,5.5c-0.5,2.1-1.4,4.1-2.8,6
		c-1.3,1.9-3.1,3.4-5.3,4.6c-2.2,1.2-4.9,2-8,2.3C612.5,201,609,200.7,605,199.7z"/>
</g>
<g>
	<path fill="#FFFFFF" d="M636.8,203.6l5.4,0.8c0.6,0.1,1.1,0,1.6-0.2c0.5-0.2,0.9-0.6,1.1-1.2l18.3-39.9c0.3-0.6,0.3-1.1,0.2-1.7
		c-0.2-0.5-0.5-1-0.9-1.4l-4.1-3.5l1-2.3l23.7,10.8l-1,2.3l-5.3-0.8c-0.5-0.1-1.1,0-1.6,0.2c-0.6,0.2-1,0.6-1.2,1.2l-9.3,20.4
		l30.1-12.7l-3.9-4.3l1-2.3l17.6,8l-1,2.3l-6.1-0.2c-0.8,0-1.5,0-2.3,0.2c-0.8,0.1-1.6,0.4-2.5,0.8l-20.2,7.8L684,220
		c0.1,0.5,0.2,0.9,0.3,1.4c0.1,0.5,0.3,0.9,0.5,1.3c0.2,0.4,0.4,0.8,0.6,1.2c0.2,0.4,0.5,0.7,0.8,0.9l3.4,2.9l-1,2.3L665,219.3
		l1-2.3l6.3,1.1l-5.5-26.7l-4.5,1.9l-6.7,14.6c-0.3,0.6-0.3,1.1-0.1,1.7c0.2,0.6,0.5,1,0.9,1.3l4,3.5l-1,2.3l-23.6-10.8L636.8,203.6
		z"/>
</g>
<g>
	<path fill="#FFFFFF" d="M692,230.9l4.3,1.2c0.6,0.2,1.1,0.2,1.6,0c0.5-0.1,0.9-0.5,1.3-1l13.9-21c0.4-0.6,0.6-1.2,0.5-1.8
		c0-0.6-0.4-1.3-1-2.2l-2.1-2.9l1.1-1.7l16,6.6l-19.1,29c-0.3,0.5-0.5,1-0.4,1.5c0.1,0.5,0.3,1,0.7,1.4l2.5,3.2l-1.3,2l-19.1-12.6
		L692,230.9z M727,198.2c-0.8-0.5-1.5-1.2-2-1.9c-0.5-0.7-0.8-1.5-1-2.4c-0.2-0.8-0.2-1.7,0-2.6c0.1-0.9,0.5-1.7,1-2.5
		c0.5-0.8,1.1-1.4,1.9-1.8c0.7-0.5,1.5-0.8,2.4-0.9c0.8-0.2,1.7-0.2,2.6,0c0.9,0.2,1.7,0.5,2.5,1c0.8,0.5,1.5,1.2,2,1.9
		c0.5,0.7,0.9,1.5,1.1,2.4c0.2,0.8,0.2,1.7,0.1,2.6c-0.1,0.9-0.5,1.7-1,2.4c-0.5,0.8-1.1,1.4-1.9,1.9c-0.7,0.5-1.5,0.8-2.4,0.9
		c-0.9,0.1-1.7,0.1-2.6,0C728.7,199.1,727.8,198.8,727,198.2z"/>
</g>
<g>
	<path fill="#FFFFFF" d="M714.5,246l4,1.5c0.6,0.2,1.2,0.3,1.7,0.2c0.5-0.1,0.9-0.4,1.3-0.8l29-36.2c0.4-0.6,0.7-1.1,0.7-1.8
		c0-0.6-0.2-1.4-0.8-2.2l-2.2-3.3l1.2-1.5l15.8,8.1L730,253.7c-0.4,0.5-0.6,1-0.5,1.5c0,0.5,0.2,1,0.5,1.5l1.9,3.3l-1.5,1.9
		l-17.4-14L714.5,246z"/>
</g>
<g>
	<path fill="#FFFFFF" d="M735.3,262.9l3.8,1.9c0.6,0.3,1.2,0.4,1.6,0.3c0.5-0.1,0.9-0.3,1.3-0.7l32.2-33.4c0.5-0.5,0.8-1.1,0.9-1.7
		c0.1-0.6-0.1-1.4-0.6-2.3l-1.9-3.5l1.4-1.4l15,9.5L750,272c-0.4,0.5-0.7,0.9-0.7,1.4c0,0.5,0.1,1,0.4,1.6l1.6,3.4l-1.7,1.8
		l-16.1-15.5L735.3,262.9z"/>
</g>
<g>
	<path fill="#FFFFFF" d="M762.6,296.7c-1-1.3-1.9-2.5-2.7-3.7c-0.7-1.2-1.3-2.3-1.9-3.3s-1-2.1-1.4-3c-0.4-1-0.8-1.9-1.1-2.8
		l9.1-7.5l2.1,2.6l-2.5,4.1c-0.2,0.3-0.3,0.6-0.4,1c-0.1,0.4-0.1,0.7-0.1,1.1s0,0.7,0.1,1.1c0,0.4,0.1,0.7,0.2,1
		c0.1,0.5,0.3,1.1,0.5,1.9s0.5,1.5,0.9,2.3s0.7,1.6,1.1,2.3c0.4,0.8,0.8,1.4,1.3,2c0.5,0.7,1.1,1.2,1.7,1.7c0.6,0.4,1.3,0.7,2,0.8
		c0.7,0.1,1.4,0.1,2.2-0.2c0.8-0.2,1.6-0.7,2.5-1.4c0.7-0.6,1.2-1.3,1.4-2c0.2-0.7,0.2-1.5,0.1-2.3c-0.1-0.8-0.3-1.7-0.7-2.6
		c-0.3-0.9-0.7-1.7-1.1-2.6c-0.6-1.3-1.1-2.4-1.5-3.4c-0.4-1-0.8-1.9-1.2-3c-0.5-1.3-0.8-2.5-0.9-3.7c-0.1-1.2,0-2.4,0.2-3.6
		c0.3-1.2,0.8-2.3,1.5-3.3c0.7-1.1,1.7-2.1,2.8-3c1.4-1.2,3-1.9,4.8-2.2c1.8-0.3,3.6-0.2,5.4,0.3c1.9,0.5,3.7,1.4,5.5,2.6
		c1.8,1.2,3.5,2.8,5,4.7c0.9,1.1,1.7,2.2,2.4,3.1c0.6,0.9,1.2,1.8,1.7,2.6c0.5,0.8,0.9,1.6,1.3,2.4c0.4,0.8,0.8,1.6,1.3,2.5l-8.7,8
		l-2.2-2.7l2.3-4.2c0.3-0.5,0.5-1.1,0.5-1.8c0-0.7,0-1.3-0.1-2c-0.1-0.5-0.3-1.1-0.5-1.6c-0.2-0.6-0.4-1.1-0.7-1.7
		c-0.3-0.6-0.6-1.2-0.9-1.7c-0.3-0.6-0.7-1.1-1.1-1.6c-0.3-0.4-0.7-0.7-1.3-1.1c-0.5-0.3-1.1-0.6-1.8-0.7c-0.7-0.1-1.4-0.1-2.1,0
		c-0.7,0.2-1.5,0.5-2.2,1.1c-0.8,0.6-1.3,1.3-1.6,2c-0.3,0.7-0.4,1.4-0.4,2.1c0,0.7,0.1,1.4,0.4,2.2c0.2,0.7,0.5,1.4,0.8,2.1
		c0.5,1.2,0.9,2.3,1.3,3.3c0.4,1,0.8,1.9,1,2.6c0.6,1.4,1,2.9,1.4,4.2c0.3,1.4,0.5,2.7,0.4,3.9s-0.4,2.4-1,3.6
		c-0.6,1.1-1.5,2.2-2.7,3.2c-1.8,1.5-3.8,2.4-5.8,2.7c-2,0.3-4,0.1-5.9-0.5c-2-0.6-3.9-1.6-5.7-3
		C765.7,300.1,764.1,298.5,762.6,296.7z"/>
</g>
<text transform="matrix(0.5473 0.8369 -0.8369 0.5473 775.9679 313.8247)" fill="#FFFFFF" font-family="'SitkaBanner-Bold'" font-size="92.8494"> </text>
<g>
	<path fill="#FFFFFF" d="M802.7,360.1c-1.8-3.7-2.8-7.4-3-11c-0.2-3.6,0.3-7,1.6-10.3c1.3-3.2,3.3-6.2,6-8.9
		c2.7-2.7,6.2-5.1,10.3-7.1c2.7-1.3,5.3-2.2,7.9-2.7s5.2-0.8,7.7-0.7c2.5,0.1,4.9,0.5,7.2,1.2c2.3,0.7,4.4,1.7,6.4,3
		c2,1.3,3.8,2.9,5.4,4.7c1.6,1.8,3,3.9,4.1,6.3c0.6,1.2,1.2,2.6,1.7,4.3c0.6,1.6,1.1,3.3,1.5,5c0.5,1.7,0.9,3.3,1.2,4.9
		c0.3,1.6,0.5,2.9,0.6,4l-12.5,6l-1.2-2.5l5.2-5.9c0.3-0.4,0.5-0.8,0.6-1.1s0.2-0.7,0.2-1.2c0.1-2,0-3.9-0.3-5.7
		c-0.3-1.9-0.9-3.7-1.8-5.5c-1-2-2.3-3.6-4-4.8c-1.7-1.2-3.7-1.9-6.1-2.2c-2.3-0.3-5-0.1-7.9,0.5c-2.9,0.6-6.1,1.7-9.5,3.4
		c-3.5,1.7-6.5,3.5-8.9,5.6c-2.4,2-4.2,4.2-5.4,6.5c-1.2,2.3-1.8,4.7-1.7,7.3c0,2.6,0.7,5.2,2,8c0.9,1.8,1.8,3.3,2.9,4.5
		c1.1,1.2,2.2,2.2,3.3,3c1.1,0.8,2.3,1.4,3.4,1.9c1.1,0.5,2.2,0.9,3.2,1.3l0.8,1.6l-4.1,1.9c-1.3-0.6-2.8-1.3-4.4-2.3
		c-1.6-0.9-3.2-2.1-4.8-3.3c-1.6-1.3-3.1-2.7-4.4-4.3S803.6,361.9,802.7,360.1z"/>
</g>
<g>
	<path fill="#FFFFFF" d="M817.4,404.2c-0.8-3.1-1.1-5.9-0.8-8.6c0.3-2.7,1.1-5.1,2.4-7.3c1.3-2.2,3.1-4.1,5.3-5.6s4.9-2.8,8-3.7
		c2.8-0.8,5.6-1.1,8.3-0.9c2.7,0.2,5.3,0.9,7.6,2.1c2.3,1.2,4.4,2.9,6.1,5.1c1.7,2.2,3.1,4.9,3.9,8.1c0.9,3.4,1.2,6.5,0.7,9.3
		s-1.4,5.2-2.8,7.3s-3.3,3.9-5.5,5.3c-2.2,1.4-4.7,2.5-7.3,3.2c-2.8,0.8-5.6,1.1-8.3,0.9c-2.7-0.2-5.2-0.9-7.6-2.1
		c-2.3-1.2-4.4-2.9-6.1-5.1S818.3,407.4,817.4,404.2z M821.5,403.6c0.5,1.7,1.4,2.9,2.7,3.7c1.3,0.8,2.8,1.3,4.5,1.4
		c1.7,0.2,3.5,0.1,5.4-0.2c1.9-0.3,3.7-0.7,5.4-1.2c2.1-0.6,4.1-1.3,6-2.1c2-0.8,3.6-1.8,5.1-2.9c1.4-1.1,2.5-2.4,3.2-3.7
		c0.7-1.4,0.8-2.9,0.4-4.6c-0.5-1.7-1.3-2.9-2.6-3.7c-1.3-0.8-2.8-1.2-4.5-1.4c-1.7-0.2-3.5-0.1-5.4,0.2c-1.9,0.3-3.7,0.7-5.3,1.1
		c-1.9,0.5-3.8,1.2-5.7,1.9c-2,0.8-3.7,1.7-5.2,2.8c-1.5,1.1-2.7,2.4-3.4,3.8C821.2,400.2,821,401.8,821.5,403.6z"/>
</g>
<g>
	<path fill="#FFFFFF" d="M827,429.3l1.9,3.8c0.3,0.6,0.7,1,1.1,1.3c0.4,0.2,0.9,0.3,1.5,0.3l45.9-6.4c0.7-0.1,1.3-0.4,1.7-0.8
		c0.5-0.4,0.8-1.1,0.9-2.1l0.7-3.9l2-0.3l6,16.7l-55.7,7.8c-0.6,0.1-1.1,0.3-1.4,0.7c-0.3,0.4-0.5,0.9-0.7,1.4l-0.8,3.7l-2.4,0.3
		l-3.1-22.2L827,429.3z"/>
</g>
<g>
	<path fill="#FFFFFF" d="M830.4,455.9l1.5,4c0.2,0.6,0.6,1.1,1,1.4c0.4,0.3,0.9,0.4,1.5,0.4l46.3-2.2c0.7,0,1.3-0.2,1.8-0.6
		c0.5-0.4,0.9-1.1,1.1-2l1.1-3.9l2-0.1l4.4,17.2l-56.2,2.7c-0.6,0-1.1,0.2-1.5,0.6s-0.6,0.8-0.8,1.4l-1.2,3.6l-2.4,0.1L828,456
		L830.4,455.9z"/>
</g>
<g>
	<path fill="#FFFFFF" d="M827.1,504.2c0.2-3,0.9-5.6,1.9-8c1.1-2.4,2.6-4.4,4.4-6c1.9-1.6,4.1-2.9,6.8-3.6c2.6-0.8,5.6-1.1,9-0.8
		c2.8,0.2,5.4,0.9,7.9,2c2.5,1.1,4.7,2.6,6.5,4.5c1.8,1.9,3.2,4.2,4.2,6.8c1,2.6,1.4,5.5,1.1,8.7c-0.2,2.7-0.8,5.1-1.9,7.1
		c-1.1,2-2.4,3.7-3.9,5c-1.6,1.3-3.3,2.3-5.2,2.9c-1.9,0.6-3.9,0.8-5.8,0.7c-0.2,0-0.6-0.1-1-0.1c-0.4,0-0.8-0.1-1.2-0.2
		c-0.4-0.1-0.8-0.1-1.2-0.2c-0.4-0.1-0.6-0.1-0.8-0.1l1.9-25.6c-5.2-0.4-9.2,0.4-12,2.3c-2.8,1.9-4.4,5.1-4.8,9.5
		c-0.1,1.5-0.1,2.8,0.1,4c0.2,1.2,0.4,2.3,0.8,3.3c0.3,1,0.7,1.9,1.1,2.7c0.4,0.8,0.7,1.5,1,2.1l-0.1,0.9l-3.2-0.2
		c-0.7-1-1.5-2.1-2.2-3.4c-0.7-1.3-1.4-2.7-1.9-4.2c-0.6-1.5-1-3.1-1.3-4.8C827,507.8,826.9,506,827.1,504.2z M852.2,512.1
		c1.7,0.1,3.3,0.2,4.9,0.1c1.5-0.1,2.8-0.3,4-0.7c1.1-0.4,2-1,2.7-1.8s1.1-1.8,1.2-3.1c0.1-1.3-0.1-2.4-0.6-3.4
		c-0.5-1-1.2-1.9-2.3-2.6c-1-0.7-2.3-1.3-3.8-1.8c-1.5-0.5-3.2-0.8-5.1-1.1L852.2,512.1z"/>
</g>
<g>
	<path fill="#FFFFFF" d="M802.6,541.9c0.7-2.7,1.5-5.2,2.4-7.3c1-2.2,2.1-4,3.3-5.4c1.2-1.4,2.6-2.5,4-3.1c1.4-0.6,3-0.7,4.6-0.3
		c1.3,0.3,2.3,0.7,3.1,1.3c0.8,0.6,1.5,1.3,1.9,2.3c0.5,1,0.8,2.1,1,3.6c0.2,1.4,0.2,3.1,0.2,5.1c0.4-0.7,0.9-1.5,1.5-2.4
		c0.6-0.8,1.4-1.6,2.2-2.2c0.8-0.7,1.8-1.2,2.8-1.5c1-0.3,2.1-0.4,3.3-0.1c1.1,0.3,2,0.8,2.7,1.5c0.7,0.7,1.2,1.6,1.6,2.5
		c0.4,1,0.6,2,0.8,3.2c0.1,1.1,0.2,2.3,0.3,3.4c0.9-1,1.8-1.9,2.7-2.7c1-0.8,2-1.5,3.1-2.1c1.1-0.5,2.3-0.9,3.7-1
		c1.3-0.2,2.8,0,4.4,0.3c1.7,0.4,3.3,1.2,4.6,2.5c1.4,1.3,2.5,2.8,3.3,4.7c0.8,1.9,1.4,4,1.6,6.3c0.2,2.3,0,4.8-0.6,7.4
		c-0.3,1.2-0.7,2.5-1.3,3.9c-0.5,1.4-1.1,2.7-1.8,3.9l-3.5,14.8l-5.2-2.3l4.7-10c-0.9,0.8-1.8,1.4-2.7,1.8c-1,0.4-1.9,0.7-2.8,0.8
		s-1.7,0.2-2.5,0.1c-0.8-0.1-1.5-0.2-2-0.3c-1.9-0.5-3.6-1.3-5.1-2.4c-1.4-1.1-2.6-2.5-3.4-4.3c-0.9-1.7-1.4-3.7-1.5-6
		c-0.2-2.3,0.1-4.7,0.7-7.4c0.3-1.1,0.6-2.2,1-3.3c0.4-1.1,0.8-2,1.2-2.7c-0.1-0.3-0.2-0.5-0.4-0.8c-0.2-0.3-0.3-0.5-0.6-0.7
		c-0.2-0.2-0.5-0.4-0.8-0.6c-0.3-0.2-0.7-0.3-1.1-0.4c-0.6-0.2-1.2-0.2-1.7-0.1c-0.5,0.1-0.9,0.3-1.2,0.6c-0.3,0.3-0.6,0.7-0.8,1.1
		c-0.2,0.4-0.4,0.9-0.5,1.4l-2.7,11.2c-0.7,2.8-1.6,5-2.7,6.7c-1.1,1.7-2.4,2.9-3.8,3.8c-1.4,0.9-2.8,1.4-4.2,1.5s-2.7,0.1-3.9-0.2
		c-2.3-0.5-4.2-1.6-5.8-3.2c-1.6-1.6-2.8-3.6-3.7-6c-0.8-2.4-1.3-5-1.4-7.9C801.6,548.1,801.9,545.1,802.6,541.9z M806.3,544.9
		c-0.3,1.3-0.5,2.7-0.4,4.1c0,1.4,0.3,2.7,0.7,3.9s1.1,2.3,1.9,3.1c0.9,0.9,1.9,1.5,3.3,1.8c0.7,0.2,1.5,0.2,2.2,0.1
		c0.7-0.1,1.4-0.3,2-0.7s1.2-1,1.6-1.7c0.5-0.8,0.9-1.7,1.1-2.9l3-12.6c-0.4-0.4-1-0.9-1.9-1.5c-0.9-0.6-2.1-1-3.6-1.4
		c-1.4-0.3-2.7-0.3-3.9,0.1c-1.1,0.4-2.1,1.1-3,1.9c-0.8,0.8-1.5,1.8-2.1,2.9C806.9,543,806.5,544,806.3,544.9z M838.1,551.8
		c-0.3,1.1-0.2,2.1,0.2,2.9c0.4,0.8,1,1.6,1.8,2.2c0.8,0.6,1.8,1.2,3,1.6c1.2,0.5,2.4,0.8,3.8,1.2c1.4,0.3,2.7,0.5,3.9,0.6
		c1.2,0.1,2.3,0,3.3-0.3c1-0.3,1.8-0.7,2.4-1.3c0.7-0.6,1.1-1.4,1.3-2.4c0.3-1.1,0.2-2.1-0.1-3c-0.3-0.9-0.9-1.6-1.7-2.2
		c-0.8-0.6-1.7-1.2-2.9-1.6c-1.1-0.5-2.3-0.8-3.6-1.1c-1.4-0.3-2.8-0.6-4-0.6c-1.3-0.1-2.4,0-3.4,0.2c-1,0.3-1.9,0.7-2.6,1.3
		C838.8,549.8,838.3,550.7,838.1,551.8z"/>
</g>
<g>
	<path fill="#FFFFFF" d="M805.2,594c1.1-2.7,2.6-5.1,4.4-7s3.8-3.4,6.1-4.3c2.3-1,4.8-1.4,7.6-1.3c2.7,0.1,5.7,0.8,8.8,2.1
		c2.6,1.1,4.9,2.5,6.9,4.4c2,1.9,3.6,4,4.7,6.3c1.1,2.4,1.7,5,1.8,7.8c0.1,2.8-0.5,5.7-1.7,8.7c-1,2.5-2.4,4.6-4,6.2
		c-1.6,1.6-3.4,2.8-5.3,3.5c-1.9,0.7-3.8,1.1-5.9,1.1c-2,0-3.9-0.4-5.7-1.2c-0.2-0.1-0.5-0.2-0.9-0.4c-0.4-0.2-0.7-0.4-1.1-0.5
		c-0.4-0.2-0.7-0.4-1.1-0.5c-0.3-0.2-0.6-0.3-0.7-0.4l9.9-23.6c-4.8-2-8.8-2.5-12.1-1.6c-3.3,0.9-5.8,3.4-7.5,7.5
		c-0.6,1.3-0.9,2.6-1.2,3.8c-0.2,1.2-0.3,2.3-0.3,3.4c0,1,0,2,0.2,2.9s0.2,1.6,0.3,2.3l-0.4,0.9l-2.9-1.2c-0.4-1.1-0.7-2.4-1-3.9
		c-0.3-1.5-0.4-3-0.5-4.6c-0.1-1.6,0-3.3,0.3-5C804,597.4,804.5,595.7,805.2,594z M826.5,609.5c1.6,0.7,3.1,1.2,4.6,1.6
		c1.5,0.4,2.8,0.6,4,0.6c1.2,0,2.3-0.3,3.2-0.8c0.9-0.5,1.6-1.4,2.1-2.5c0.5-1.2,0.7-2.3,0.5-3.4c-0.1-1.1-0.6-2.2-1.3-3.2
		c-0.7-1-1.7-2-3-2.9c-1.3-0.9-2.8-1.8-4.5-2.6L826.5,609.5z"/>
</g>
<g>
	<defs>
		<rect id="SVGID_3_" x="0" width="1080" height="1080"/>
	</defs>
	<clipPath id="SVGID_4_">
		<use xlink:href="#SVGID_3_"  overflow="visible"/>
	</clipPath>
	<polygon clip-path="url(#SVGID_4_)" fill="#FFBC00" points="819.4,632.3 802.5,650 780.3,639.4 792,661 775.1,678.8 799.2,674.4 
		810.9,696 814.1,671.6 838.3,667.2 816.1,656.6 	"/>
	<polygon clip-path="url(#SVGID_4_)" fill="#FFBC00" points="256.5,632.3 273.4,650 295.6,639.4 283.9,661 300.8,678.8 276.7,674.4 
		265,696 261.7,671.6 237.6,667.2 259.7,656.6 	"/>
	<polygon clip-path="url(#SVGID_4_)" fill="#FFBC00" points="767.6,710.2 753.8,724.7 735.7,716.1 745.2,733.7 731.4,748.2 
		751.1,744.6 760.7,762.2 763.3,742.3 783,738.7 764.9,730.1 	"/>
	<polygon clip-path="url(#SVGID_4_)" fill="#FFBC00" points="308.3,710.2 322.1,724.7 340.2,716.1 330.7,733.7 344.5,748.2 
		324.8,744.6 315.2,762.2 312.6,742.3 292.9,738.7 311,730.1 	"/>
	<polygon clip-path="url(#SVGID_4_)" fill="#FFBC00" points="704.4,761.6 694.4,772.1 681.3,765.9 688.2,778.6 678.2,789.1 
		692.4,786.5 699.4,799.3 701.3,784.9 715.6,782.3 702.5,776 	"/>
	<polygon clip-path="url(#SVGID_4_)" fill="#FFBC00" points="371.5,761.6 381.5,772.1 394.6,765.9 387.7,778.6 397.7,789.1 
		383.4,786.5 376.5,799.3 374.6,784.9 360.3,782.3 373.4,776 	"/>
</g>
<g>
	<path fill="#FFBC00" d="M426.3,952.3l6.7-2c0.8-0.2,1.4-0.6,1.8-1.1c0.4-0.5,0.7-1.2,0.7-2v-56.5c0-0.8-0.2-1.5-0.7-2
		s-1.1-0.9-1.8-1.1l-6.7-1.9v-3.2h31.5c3.8,0,7.4,0.4,10.8,1.1c3.4,0.7,6.4,1.9,8.9,3.5s4.6,3.6,6,6.1c1.5,2.5,2.2,5.5,2.2,9
		c0,3.7-0.6,7.1-1.9,10c-1.3,3-3,5.5-5.2,7.6c-2.2,2.1-4.8,3.7-7.7,4.8c-3,1.1-6.1,1.7-9.6,1.7c-0.8,0-1.6-0.1-2.6-0.3
		c-1-0.2-1.9-0.5-2.9-0.8c-1-0.3-1.9-0.7-2.8-1.2s-1.8-0.9-2.5-1.4v24.6c0,0.8,0.2,1.5,0.7,2c0.5,0.5,1.1,0.9,1.8,1.1l7.6,2v3.2
		h-34.4V952.3z M458.1,920c1.7,0,3.1-0.3,4.3-0.8c1.2-0.6,2.3-1.3,3.1-2.2c0.8-0.9,1.5-1.9,2.1-3.1c0.5-1.1,1-2.3,1.3-3.4
		s0.5-2.2,0.6-3.2c0.1-1,0.2-1.9,0.2-2.5c0-2.2-0.2-4.2-0.7-6.2c-0.4-2-1.2-3.8-2.3-5.3c-1.1-1.5-2.5-2.7-4.3-3.6
		c-1.8-0.9-4-1.4-6.7-1.4h-5.2v31c0.4,0.1,0.9,0.3,1.5,0.4s1.2,0.2,1.9,0.3s1.4,0.1,2,0.2S457.4,920,458.1,920z"/>
	<path fill="#FFBC00" d="M489.3,952.3l6.7-2c0.8-0.2,1.4-0.6,1.8-1.1c0.4-0.5,0.7-1.2,0.7-2v-56.5c0-0.8-0.2-1.5-0.7-2.1
		c-0.5-0.6-1.1-0.9-1.8-1.1l-6.7-1.9v-3.2h33.5v3.2l-6.7,1.9c-0.7,0.2-1.3,0.6-1.8,1.1c-0.5,0.6-0.8,1.3-0.8,2v56.5
		c0,0.8,0.2,1.5,0.7,2c0.5,0.5,1.1,0.9,1.8,1.1l6.7,2v3.2h-33.5V952.3z"/>
	<path fill="#FFBC00" d="M553.4,957.2c-2.1,0-4.2-0.1-6.3-0.4c-2.1-0.2-4.1-0.6-6.1-1c-2-0.4-4-0.9-5.9-1.5
		c-1.9-0.5-3.9-1.1-5.7-1.7l-1.3-20.7h3.6l4.7,10.6c0.1,0.2,0.3,0.5,0.5,0.7c0.2,0.3,0.4,0.5,0.6,0.8c0.2,0.3,0.5,0.5,0.7,0.7
		c0.2,0.2,0.4,0.4,0.6,0.5c1.3,0.8,2.7,1.6,4.3,2.3c1.6,0.7,3.2,1.2,4.7,1.7s3.1,0.8,4.5,1.1c1.4,0.2,2.7,0.4,3.7,0.4
		c2,0,3.8-0.3,5.4-1c1.6-0.7,2.9-1.5,4.1-2.7c1.1-1.1,2-2.4,2.6-3.9s0.9-3.1,0.9-4.7c0-1.4-0.2-2.6-0.6-3.7
		c-0.4-1.1-0.9-2.1-1.7-3.1c-0.8-0.9-1.7-1.8-2.9-2.5c-1.2-0.7-2.5-1.4-4.1-2.1c-1.3-0.5-2.7-1-4-1.4c-1.3-0.4-2.7-0.8-4-1.1
		c-1.3-0.4-2.6-0.8-4-1.2c-1.3-0.4-2.6-0.9-3.9-1.4c-2.2-0.9-4.1-2-5.7-3.3c-1.7-1.3-3.1-2.9-4.2-4.5c-1.1-1.7-2-3.5-2.5-5.4
		c-0.6-1.9-0.9-4-0.9-6.1c0-2,0.3-4,0.9-5.8c0.6-1.9,1.5-3.6,2.6-5.2s2.5-3.1,4.1-4.4c1.6-1.3,3.3-2.4,5.3-3.4
		c1.9-0.9,4-1.6,6.3-2.1c2.2-0.5,4.6-0.8,7-0.8c2.2,0,4.3,0.1,6.4,0.3c2.1,0.2,4.1,0.4,6.1,0.7c1.9,0.3,3.8,0.7,5.5,1.1
		c1.8,0.4,3.4,0.9,4.9,1.4v19.1h-3.6l-4.2-9.8c-0.2-0.5-0.5-1-1-1.4c-0.5-0.4-0.9-0.8-1.3-1.1c-0.8-0.6-1.9-1.2-3.1-1.6
		c-1.2-0.5-2.5-0.8-3.8-1.1c-1.3-0.3-2.5-0.5-3.8-0.7s-2.2-0.2-3.1-0.2c-1.8,0-3.4,0.3-4.8,0.8c-1.4,0.6-2.6,1.3-3.6,2.3
		s-1.8,2-2.3,3.3c-0.5,1.2-0.8,2.5-0.8,3.7c0,1.4,0.2,2.7,0.5,3.9c0.3,1.2,0.8,2.3,1.6,3.3c0.7,1,1.7,1.9,2.9,2.7s2.7,1.5,4.4,2.1
		c1.3,0.5,2.5,0.9,3.8,1.2c1.3,0.4,2.5,0.7,3.8,1.1c1.3,0.4,2.6,0.8,3.9,1.2c1.3,0.4,2.7,1,4.2,1.6c1.7,0.7,3.4,1.6,5.1,2.8
		c1.7,1.2,3.2,2.5,4.5,4.1c1.3,1.6,2.4,3.5,3.2,5.6c0.8,2.1,1.2,4.4,1.2,7c0,2.8-0.6,5.6-1.7,8.3c-1.1,2.7-2.9,5.2-5.3,7.3
		c-2.4,2.2-5.5,3.9-9.3,5.3C563.2,956.5,558.6,957.2,553.4,957.2z"/>
	<path fill="#FFBC00" d="M623.7,957.1c-5.3,0-10.2-0.9-14.5-2.6c-4.3-1.8-8-4.3-11-7.5c-3-3.3-5.4-7.3-7-11.9
		c-1.6-4.7-2.5-10-2.5-15.8c0-3.8,0.4-7.4,1.2-10.7c0.8-3.4,2-6.5,3.5-9.3c1.5-2.8,3.3-5.4,5.4-7.6c2.1-2.2,4.5-4.2,7.1-5.7
		c2.6-1.6,5.4-2.8,8.4-3.6c3-0.8,6.2-1.2,9.5-1.2c1.7,0,3.7,0.1,5.9,0.4c2.2,0.2,4.4,0.6,6.6,1c2.2,0.4,4.3,0.8,6.3,1.3
		c2,0.5,3.7,1,5,1.5v17.9H644l-3.9-9.3c-0.3-0.6-0.6-1.1-1-1.4c-0.4-0.3-0.8-0.6-1.2-0.9c-2.2-1.2-4.5-2.2-6.8-2.9
		c-2.3-0.7-4.8-1-7.4-1c-2.8,0-5.4,0.7-7.7,2c-2.3,1.3-4.3,3.2-5.9,5.8c-1.6,2.5-2.9,5.7-3.8,9.4c-0.9,3.7-1.4,8-1.4,12.9
		c0,5,0.5,9.5,1.5,13.4c1,3.9,2.5,7.2,4.5,9.8c2,2.7,4.5,4.7,7.5,6.1c3,1.4,6.4,2.1,10.4,2.1c2.6,0,4.9-0.3,6.8-0.9s3.7-1.3,5.3-2.2
		c1.5-0.9,2.9-1.8,4.1-2.9c1.2-1,2.3-2,3.3-2.9h2.3v5.8c-1.4,1.2-3.1,2.5-5.1,3.8c-2,1.3-4.2,2.5-6.5,3.7c-2.4,1.1-4.9,2-7.5,2.8
		C628.9,956.7,626.3,957.1,623.7,957.1z"/>
</g>
<g>
	<defs>
		<rect id="SVGID_5_" x="0" width="1080" height="1080"/>
	</defs>
	<clipPath id="SVGID_6_">
		<use xlink:href="#SVGID_5_"  overflow="visible"/>
	</clipPath>
	<path clip-path="url(#SVGID_6_)" fill="#FFBC00" d="M970.2,379.6c0,0,4.7-33.3-33.2-35.3C937,344.2,932.8,375.4,970.2,379.6"/>
	<path clip-path="url(#SVGID_6_)" fill="#FFBC00" d="M944.4,325.3c0,0,1.9-26.4-27.9-26C916.5,299.3,914.8,324,944.4,325.3"/>
	<path clip-path="url(#SVGID_6_)" fill="#FFBC00" d="M980.3,442.1c0,0,10.1-41-36.8-48.3C943.5,393.8,934.2,432.1,980.3,442.1"/>
	<path clip-path="url(#SVGID_6_)" fill="#FFBC00" d="M993.9,516.7c0,0,12.9-47.2-41.4-57.1C952.6,459.6,940.7,503.9,993.9,516.7"/>
	<path clip-path="url(#SVGID_6_)" fill="#FFBC00" d="M987.6,583.6c0,0,21.7-44.3-30-64.3C957.5,519.2,937.3,560.7,987.6,583.6"/>
	<path clip-path="url(#SVGID_6_)" fill="#FFBC00" d="M972.2,647.6c0,0,26.2-44.2-25.9-69.3C946.3,578.3,921.9,619.7,972.2,647.6"/>
	<path clip-path="url(#SVGID_6_)" fill="#FFBC00" d="M940.9,715.7c0,0,33.9-38.6-12.8-72.9C928.1,642.9,896.6,679.1,940.9,715.7"/>
	<path clip-path="url(#SVGID_6_)" fill="#FFBC00" d="M895.4,782.7c0,0,48.9-35.6,4.2-87C899.6,695.8,854,729.2,895.4,782.7"/>
	<path clip-path="url(#SVGID_6_)" fill="#FFBC00" d="M846.7,835.8c0,0,50-32,9.2-84.9C855.9,750.9,809.2,781,846.7,835.8"/>
	<path clip-path="url(#SVGID_6_)" fill="#FFBC00" d="M786.1,875.8c0,0,56.4-18.5,30.1-79.9C816.2,795.8,763.5,813.3,786.1,875.8"/>
	<path clip-path="url(#SVGID_6_)" fill="#FFBC00" d="M732.9,915.7c0,0,56.4-18.5,30.1-79.9C763,835.8,710.4,853.3,732.9,915.7"/>
	<path clip-path="url(#SVGID_6_)" fill="#FFBC00" d="M678.9,945.8c0,0,56.4-18.5,30.1-79.9C709,865.8,656.3,883.3,678.9,945.8"/>
	<path clip-path="url(#SVGID_6_)" fill="#FFBC00" d="M109.8,379.6c0,0-4.7-33.3,33.2-35.3C143,344.2,147.2,375.4,109.8,379.6"/>
	<path clip-path="url(#SVGID_6_)" fill="#FFBC00" d="M135.6,325.3c0,0-1.9-26.4,27.9-26C163.5,299.3,165.2,324,135.6,325.3"/>
	<path clip-path="url(#SVGID_6_)" fill="#FFBC00" d="M99.7,442.1c0,0-10.1-41,36.8-48.3C136.5,393.8,145.8,432.1,99.7,442.1"/>
	<path clip-path="url(#SVGID_6_)" fill="#FFBC00" d="M86.1,516.7c0,0-12.9-47.2,41.4-57.1C127.4,459.6,139.3,503.9,86.1,516.7"/>
	<path clip-path="url(#SVGID_6_)" fill="#FFBC00" d="M92.4,583.6c0,0-21.7-44.3,30-64.3C122.5,519.2,142.7,560.7,92.4,583.6"/>
	<path clip-path="url(#SVGID_6_)" fill="#FFBC00" d="M107.8,647.6c0,0-26.2-44.2,25.9-69.3C133.7,578.3,158.1,619.7,107.8,647.6"/>
	<path clip-path="url(#SVGID_6_)" fill="#FFBC00" d="M139.1,715.7c0,0-33.9-38.6,12.8-72.9C151.9,642.9,183.4,679.1,139.1,715.7"/>
	<path clip-path="url(#SVGID_6_)" fill="#FFBC00" d="M184.6,782.7c0,0-48.9-35.6-4.2-87C180.4,695.8,226,729.2,184.6,782.7"/>
	<path clip-path="url(#SVGID_6_)" fill="#FFBC00" d="M233.3,835.8c0,0-50-32-9.2-84.9C224.1,750.9,270.8,781,233.3,835.8"/>
	<path clip-path="url(#SVGID_6_)" fill="#FFBC00" d="M293.9,875.8c0,0-56.4-18.5-30.1-79.9C263.8,795.8,316.5,813.3,293.9,875.8"/>
	<path clip-path="url(#SVGID_6_)" fill="#FFBC00" d="M347.1,915.7c0,0-56.4-18.5-30.1-79.9C317,835.8,369.6,853.3,347.1,915.7"/>
	<path clip-path="url(#SVGID_6_)" fill="#FFBC00" d="M401.1,945.8c0,0-56.4-18.5-30.1-79.9C371,865.8,423.7,883.3,401.1,945.8"/>
	<path clip-path="url(#SVGID_6_)" fill="#FFFFFF" d="M538.8,251.4v229.9H308.9C308.9,354.3,411.8,251.4,538.8,251.4"/>
	<path clip-path="url(#SVGID_6_)" d="M768.6,481.3H538.8V251.4C665.7,251.4,768.6,354.3,768.6,481.3"/>
	<path clip-path="url(#SVGID_6_)" d="M539.8,481.3v229.9c-127,0-229.9-102.9-229.9-229.9H539.8z"/>
	<path clip-path="url(#SVGID_6_)" fill="#FFFFFF" d="M767.6,481.3c0,127-102.9,229.9-229.9,229.9V481.3H767.6z"/>
	<path clip-path="url(#SVGID_6_)" fill="#FFFFFF" d="M693.9,614.3H588.2c-2,0-3.6-1.6-3.6-3.6V546c0-2,1.6-3.6,3.6-3.6h105.7
		c2,0,3.6,1.6,3.6,3.6v64.8C697.5,612.7,695.9,614.3,693.9,614.3"/>
	<path clip-path="url(#SVGID_6_)" fill="#00B99E" d="M695.6,540.8H586.4c-1.9,0-3.4,1.5-3.4,3.4v68.2c0,1.9,1.5,3.4,3.4,3.4h109.2
		c1.9,0,3.4-1.5,3.4-3.4v-68.2C699.1,542.3,697.5,540.8,695.6,540.8 M588,545.7h106.2V611H588V545.7z"/>
	<path clip-path="url(#SVGID_6_)" fill="#00B99E" d="M695.6,540.8H586.5c-1.9,0-3.4,1.5-3.4,3.4v68.2c0,1.9,1.5,3.4,3.4,3.4h109.2
		c1.9,0,3.4-1.5,3.4-3.4v-68.2C699.1,542.3,697.5,540.8,695.6,540.8 M696,612.5c0,0.2-0.1,0.3-0.3,0.3H586.5c-0.2,0-0.3-0.1-0.3-0.3
		v-68.2c0-0.2,0.1-0.3,0.3-0.3h109.2c0.2,0,0.3,0.1,0.3,0.3V612.5z"/>
	<path clip-path="url(#SVGID_6_)" fill="#00B99E" d="M693.9,614.3H588.2c-2,0-3.6-1.6-3.6-3.6v-8.8h112.9v8.8
		C697.5,612.7,695.9,614.3,693.9,614.3"/>
	<rect x="631.1" y="533.3" clip-path="url(#SVGID_6_)" fill="#FFBC00" width="18.1" height="18.1"/>
	
		<rect x="631.1" y="533.3" clip-path="url(#SVGID_6_)" fill="none" stroke="#FFFFFF" stroke-width="1.19" stroke-miterlimit="10" width="18.1" height="18.1"/>
	<rect x="646.7" y="521.6" clip-path="url(#SVGID_6_)" fill="#001733" width="11.4" height="11.4"/>
	
		<rect x="646.7" y="521.6" clip-path="url(#SVGID_6_)" fill="none" stroke="#FFFFFF" stroke-width="1.19" stroke-miterlimit="10" width="11.4" height="11.4"/>
	<rect x="634" y="518.3" clip-path="url(#SVGID_6_)" fill="#FFBC00" width="8.1" height="8.1"/>
	
		<rect x="634" y="518.3" clip-path="url(#SVGID_6_)" fill="none" stroke="#FFFFFF" stroke-width="1.19" stroke-miterlimit="10" width="8.1" height="8.1"/>
	<rect x="645.1" y="510.4" clip-path="url(#SVGID_6_)" fill="#001733" width="5.7" height="5.7"/>
	
		<rect x="645.1" y="510.4" clip-path="url(#SVGID_6_)" fill="none" stroke="#FFFFFF" stroke-width="1.19" stroke-miterlimit="10" width="5.7" height="5.7"/>
	<path clip-path="url(#SVGID_6_)" fill="#00B99E" d="M652.4,628.4c-3.1-4.7-4.8-9.5-4.8-9.5h-13.1c0,0-1.2,4.1-4.8,9.5H652.4z"/>
	<path clip-path="url(#SVGID_6_)" fill="#FFFFFF" d="M448.1,522.4c11.6-0.4,23.2,3.9,33.2,12.3c12.4,10.5,19,24,19.4,40.3
		c0.7,30.7-24.4,56.1-56.1,55c-27.5-1-48.8-22.7-51.2-48.4c-1.7-18,4.3-33.3,17.5-45.5C420.7,526.9,432.7,522.2,448.1,522.4
		 M423,568.1c-0.1,1.8-0.4,3.4-0.3,5c0.1,3.8,0.2,7.6,0.5,11.4c0.2,2.8,0.8,5.6,1.3,8.4c0.1,0.4,0.5,1,0.9,1.2
		c1.4,0.4,2.8,0.8,4.2,1c2.7,0.4,5.4,0.8,8.1,1c1.9,0.2,3.8,0.3,5.8,0.4c0-0.9,0-1.5,0-2.2c0-4.1,0-8.2,0-12.3c0-3.2,0-6.4,0-9.6
		c0-0.7-0.1-1.1-0.9-1.2c-2-0.1-3.9-0.2-5.9-0.5c-3.2-0.5-6.5-1.1-9.7-1.7C425.6,568.9,424.4,568.5,423,568.1 M450.4,571.8
		c0,0.1-0.1,0.5-0.1,0.8c0,7.6,0,15.1-0.1,22.7c0,0.9,0.3,1.3,1.2,1.2c3.7-0.4,7.4-0.6,11.1-1.1c1.9-0.2,3.8-0.8,5.7-1.3
		c0.4-0.1,0.9-0.7,1-1.1c0.7-4.5,1.4-9.1,1.8-13.6c0.3-3.7,0.1-7.4,0.1-11C464,569.6,457.3,570.7,450.4,571.8 M443.4,564.3V531
		c-0.6,0.2-1.2,0.2-1.7,0.4c-3.8,1.7-6.7,4.5-9.1,7.9c-3.5,4.9-5.7,10.4-7.3,16.2c-0.5,1.8-0.8,3.6-1.2,5.4
		C430.4,563.2,436.7,564.4,443.4,564.3 M450.4,531.1c0,1.6,0,3.1,0,4.5c0,9.1-0.1,18.3-0.1,27.4c0,1.4,0.2,1.6,1.6,1.4
		c2-0.3,4.1-0.4,6.1-0.8c3.5-0.7,7-1.5,10.5-2.3c0.9-0.2,1.1-0.8,0.9-1.6c-0.7-2.7-1.4-5.4-2.3-8c-2.4-7.1-5.8-13.7-12-18.4
		C453.8,532.3,452.2,531.4,450.4,531.1 M417,591.6c-0.1-1.1-0.2-1.7-0.2-2.4c-0.3-2.7-0.8-5.4-1-8.1c-0.2-2.5-0.1-5.1,0-7.7
		c0-2.1,0.1-4.1,0.3-6.2c0.1-2.1,0.1-2-1.7-3.1c-2-1.2-3.8-2.6-5.6-4.1c-1.3-1.1-2.2-2.5-3.5-3.8c-0.7,1.7-1.3,3.3-2,5
		c-1.7,4.6-2.5,9.3-2.6,14.2c-0.1,4.8,2.3,8.2,6,10.9c1.9,1.4,4,2.6,6,3.7C414,590.6,415.4,591,417,591.6 M476.8,591.5
		c0.5-0.2,0.9-0.2,1.2-0.4c3.5-1.4,6.8-3.1,9.8-5.5c3.2-2.6,5.3-5.8,5.2-10.1c-0.1-2.5-0.4-4.9-0.7-7.4c-0.6-3.8-1.9-7.4-3.4-11
		c-0.3-0.7-0.7-1-1.3-0.1c-0.4,0.7-0.9,1.3-1.5,1.9c-2.3,2.5-5,4.3-8,6c-0.3,0.2-0.7,0.7-0.7,1c0.1,2.4,0.5,4.8,0.5,7.2
		c0,4.3-0.3,8.5-0.5,12.8C477.3,587.6,477,589.4,476.8,591.5 M450.4,603.8v17c5.8-0.1,13.6-10.5,16-18.7
		C461.1,602.6,455.9,603.2,450.4,603.8 M427,602.1c1.3,2.7,2.3,5.2,3.6,7.5c2.7,4.8,6.2,8.8,11.3,11.2c1.2,0.5,1.5,0.4,1.5-0.8
		c0-3.8,0-7.6,0-11.4c0-1.6,0-3.2,0-4.7C437.9,603.2,432.6,602.7,427,602.1 M404.2,593.3c3.8,10.1,16.6,23.5,23.3,24.5
		c-0.9-1.4-1.8-2.7-2.6-4.1c-2.4-4-4.2-8.2-5.5-12.7c-0.3-0.9-0.8-1.3-1.7-1.6c-2.7-1-5.3-2-7.9-3.1
		C408,595.4,406.2,594.4,404.2,593.3 M489.3,593.4c-0.2,0.1-0.4,0.2-0.5,0.3c-3.9,2.4-8,4.2-12.4,5.6c-1.2,0.4-1.7,0.9-2.1,2.1
		c-1.4,4.7-3.4,9.2-6.1,13.3c-0.6,1-1.2,2-2,3.3C477.2,612.5,484.8,604.4,489.3,593.4 M417.5,558c1.9-8.4,4.8-16.2,9.5-23.2
		c-0.5,0-0.9,0.2-1.3,0.4c-5.1,2.5-9.4,6.1-13.2,10.2c-1.5,1.6-2.4,3.5-1.6,5.7C412.1,554.3,414.6,556.1,417.5,558 M466.5,534.6
		c4.9,7.1,7.8,15,9.8,23.3c1-0.6,1.9-1.1,2.6-1.7c0.8-0.7,1.5-1.5,2.3-2.2c2-2.1,2.8-5.6,0.3-8c-1.5-1.5-3-3.1-4.6-4.6
		C473.8,538.4,470.4,536.2,466.5,534.6"/>
	<path clip-path="url(#SVGID_6_)" fill="#FFFFFF" d="M710,358.4c-0.6-0.3-1.1-0.6-1.7-0.8c-1.8-0.6-3.7-1.2-5.5-1.8
		c-4.5-1.5-8.9-3-13.3-4.4c-4-1.3-7.9-2.6-11.9-3.9c-4.2-1.4-8.4-2.8-12.6-4.2c-4.5-1.5-9-3-13.5-4.5c-2.5-0.8-4.9-1.7-7.4-2.5
		c-1.2-0.4-2.5-0.5-3.7-0.2c-0.9,0.2-1.8,0.7-2.6,1c-2.4,0.8-4.7,1.6-7.1,2.4c-3.4,1.1-6.9,2.2-10.3,3.4c-3.3,1.1-6.6,2.2-10,3.4
		c-3.8,1.3-7.6,2.5-11.4,3.8c-2.1,0.7-4.2,1.5-6.3,2.2c-1.6,0.5-3.2,1-4.8,1.5c-2.5,0.8-5,1.7-7.5,2.5c-1.6,0.5-3.3,1-4.9,1.6
		c-1.3,0.5-2.5,1.2-2.5,2.9c0.2,1,0.8,1.8,1.7,2.2c0.3,0.1,0.6,0.3,0.8,0.4c0.2,0.1,0.3,0.2,0.5,0.3l0,0c0.3,0.1,0.6,0.2,1,0.3
		c1.8,0.6,3.6,1.2,5.4,1.8c0.4,0.1,0.8,0.2,1.3,0.3c0.3,0.1,0.7,0.2,1,0.4c0.1,0,0.3,0.1,0.4,0.1c0.2,0,0.4,0.1,0.6,0.1
		c1,0.3,1.9,0.7,2.9,1c0.4,0.2,0.9,0.5,1.3,0.7c-0.2,0.2-0.3,0.4-0.4,0.6c-1.3,1.7-2.4,3.5-3.1,5.6c-0.4,1.1-0.7,2.3-1.1,3.4
		c-0.7,2-0.9,4.1-1.2,6.2c-0.1,0.6-0.2,1.1-0.2,1.7c0,0.9-0.2,1.6-1,2.1c-2.2,1.3-3.1,3.4-3.1,5.9c0,0.9,0.4,1.8,0.6,2.7
		c0.7,1.5,1.9,2.4,3.1,3.3c0.5,0.3,0.5,0.7,0.3,1.2c0,0.6,0,1.1-0.1,1.7c-0.3,1.4-0.6,2.8-1,4.1c-0.5,1.6-1,3.2-1.6,4.8
		c-0.1,0.1-0.1,0.3-0.2,0.4c0,0.1,0,0.2-0.1,0.2c-0.8,1.6-1.6,3.3-2.5,4.9c-1,1.6-2.2,3.1-3.4,4.6c-1.2,1.4-2.6,2.7-3.8,4.1
		c-0.3,0.3-0.3,0.9-0.4,1.3c1.7,1,3.4,2,5.1,2.9c1.3,0.7,2.8,1.2,4.1,1.8c1.4,0.6,2.7,0.1,3.9-0.4c0.2-0.1,0.3-0.2,0.5-0.2
		c0.1-0.1,0.1-0.1,0.2-0.2c2.5-1.7,4.3-3.9,5.6-6.6c1.3-2.7,1.9-5.6,2-8.6c0.1-1.7,0-3.3-0.1-5c-0.1-1.2-0.1-2.5-0.3-3.7
		c-0.2-2.1-0.5-4.2-0.7-6.4c-0.1-0.7-0.1-1.4,0.6-2c1.5-1.4,2.2-3.2,2.2-5.3c0-1.6-0.5-3-1.6-4.2c-0.4-0.4-0.7-0.7-1.1-1.1
		c-0.6-0.5-0.9-1.1-0.7-1.9c0.1-0.8,0.2-1.6,0.4-2.4c0.3-1.7,0.6-3.4,1.1-5.1c0.6-2.2,1.6-4.2,3-5.9c0.9-1.2,2.2-2.1,3.2-3.1
		c0.3-0.2,0.5-0.3,0.8-0.5c0.2-0.1,0.3-0.2,0.5-0.3c0.8-0.4,1.5-0.8,2.3-1.2c0.4-0.2,0.9-0.4,1.3-0.6c0.1,0,0.2-0.1,0.3-0.1
		c0.2-0.1,0.3-0.2,0.5-0.3c0.9-0.4,1.8-0.8,2.7-1.1l0.5-0.2c0.2-0.1,0.4-0.2,0.6-0.3c0.4-0.1,0.8-0.3,1.1-0.4
		c0.7-0.3,1.4-0.6,2.2-0.9c1-0.4,2-0.8,2.9-1.2l0.7-0.3c0.2-0.1,0.4-0.1,0.5-0.2l2-0.8c0.1-0.1,0.3-0.1,0.4-0.2
		c0.8-0.3,1.7-0.7,2.5-1c2.8-1.1,5.7-2.3,8.6-3.4c1.9-0.7,3.8-1.4,5.7-2.1c1.7-0.6,3.4-1.3,5.1-1.8c1.3-0.4,2.6-0.7,3.9-0.4
		c1.2,0.3,2,1.2,2,2.4c0.1,2.3-0.8,3.2-2.7,4c-1.5,0.6-3.1,1-4.6,1.6c-2.8,1-5.6,2.1-8.3,3.1c-3.1,1.2-6.1,2.3-9.2,3.5
		c-1.9,0.7-3.8,1.5-5.7,2.3c-0.1,0.1-0.2,0.1-0.4,0.1c-0.3,0.1-0.6,0.2-0.9,0.3c-2.1,0.9-4.2,1.7-6.4,2.6c-0.3,0.1-0.5,0.2-0.8,0.4
		c-0.2,0.1-0.4,0.2-0.6,0.3c-0.1,0.1-0.2,0.3-0.2,0.4c1.7,0.5,3.3,1,5,1.6c4.6,1.5,9.2,3,13.8,4.6c1.6,0.6,3.3,1.2,4.9,1.7
		c2.4,0.8,4.8,1.5,7.2,2.3c1.4,0.5,2.9,1,4.3,1.4c1.1,0.3,2.2,0.3,3.3,0c2.8-0.9,5.5-1.9,8.3-2.8c4.1-1.4,8.2-2.7,12.3-4.1
		c5-1.7,10-3.3,14.9-5c2.1-0.7,4.3-1.4,6.5-2.1c0.7-0.3,1.4-0.5,2.2-0.8c0.3-0.1,0.5-0.1,0.8-0.2c0.3-0.1,0.5-0.2,0.8-0.3
		c0.5-0.2,1-0.4,1.5-0.5c1.3-0.4,2.6-0.8,3.9-1.3c1.4-0.5,2.8-1,4.3-1.4c1.3-0.4,2.6-0.9,3.9-1.3c0.3-0.1,0.6-0.2,1-0.3
		c1.5-0.5,3-0.9,4.5-1.4c0.3-0.1,0.5-0.2,0.8-0.4c0.1-0.1,0.2-0.1,0.3-0.2c0.2-0.2,0.4-0.3,0.7-0.5C711.8,361.5,711.5,359,710,358.4
		"/>
	<path clip-path="url(#SVGID_6_)" fill="#FFFFFF" d="M686.5,378.7c-0.6,0.1-1,0.1-1.5,0.3c-3.7,1.2-7.3,2.5-10.9,3.7
		c-4.3,1.5-8.7,2.9-13,4.3c-3.2,1.1-6.5,2.2-9.7,3.3c-2.2,0.7-4.5,1.5-6.7,2.1c-0.8,0.2-1.7,0.4-2.5,0.2c-1.5-0.2-3-0.6-4.5-1
		c-2.8-0.8-5.7-1.7-8.5-2.6c-2.6-0.8-5.1-1.7-7.7-2.6c-2.5-0.8-4.9-1.7-7.3-2.5c-1.6-0.6-3.2-1.1-4.9-1.7c-3-1-5.9-2-8.9-3
		c-0.4-0.1-0.8-0.1-1.2-0.2c-0.3,1.7-0.6,3.2-0.8,4.8c-0.1,1,0,2.1,0,3.2c0.7,0.4,1.5,0.7,2,1.3c0.7,0.7,1.2,1.6,1.7,2.4
		c0.4,1.2,0.9,2.4,1.1,3.6c0.2,1.2,0.1,2.4,0,3.5c0,1.2-0.5,2.3-1.1,3.3c-0.4,0.7-0.9,1.4-1.4,2.2c-0.2,0.3-0.2,0.5,0.1,0.7
		c0.5,0.4,1,0.9,1.5,1.3c1.1,0.8,2.2,1.6,3.3,2.3c0.7,0.4,1.5,0.8,2.2,1.3c0.9,0.4,1.9,0.8,2.8,1.2c1.2,0.4,2.4,0.9,3.6,1.3
		c0.7,0.3,1.5,0.5,2.2,0.7c0.1,0,0.2,0.1,0.3,0.1c2.1,0.5,4.2,1,6.2,1.4c1.5,0.3,3.1,0.5,4.7,0.8c1.1,0.2,2.1,0.3,3.2,0.4
		c1.8,0.2,3.7,0.3,5.5,0.5c0.3,0,0.6,0.1,0.9,0.1c0.3,0,0.6,0,0.9,0c0.3,0,0.5,0,0.8,0c2.9,0,5.8,0,8.7,0h0.3l1-0.1
		c0.4,0,0.8,0,1.2,0c1.1-0.1,2.2-0.2,3.3-0.3c0.1,0,0.3,0,0.4,0c0.8-0.1,1.6-0.2,2.4-0.4c0.5-0.1,0.9-0.1,1.4-0.1
		c0.8-0.1,1.7-0.3,2.5-0.4c1.4-0.3,2.9-0.5,4.3-0.9c1.5-0.4,3.1-0.8,4.6-1.2c2-0.7,4-1.4,6-2.1c1.2-0.6,2.4-1.2,3.5-1.7
		c1.2-0.8,2.4-1.6,3.6-2.4c0.6-0.5,1.1-1,1.7-1.5c2.1-2.1,3-4.7,3-7.6c0-4.9,0-9.7,0-14.6C686.5,380.9,686.5,379.8,686.5,378.7"/>
	<polyline clip-path="url(#SVGID_6_)" fill="#FFFFFF" points="581.4,410.5 581.4,410.5 581.4,410.5 	"/>
	<path clip-path="url(#SVGID_6_)" d="M519.1,425.7c-0.1-0.7-0.3-1.3-0.4-2c-0.2-1.4-0.5-2.7-0.7-4.1c-0.1-0.7-0.3-1.4-0.4-2.2
		c-0.2-1.3-0.5-2.6-0.7-3.9c-0.1-0.9-0.2-1.9-0.2-2.8c-0.1-0.4-0.3-0.8-0.3-1.3c-0.4-2.3-0.7-4.6-1.1-6.8c-0.2-1-0.4-1.9-0.6-2.9
		c-0.3-1.6-0.6-3.1-0.8-4.7c-0.1-0.3,0-0.6-0.1-0.9c-0.1-0.2-0.2-0.4-0.2-0.6c-0.2-1.7-0.4-3.3-0.7-5c-0.2-1.1-0.4-2.1-0.6-3.2
		c-0.1-0.5-0.2-1-0.2-1.6c0-0.3-0.1-0.6-0.1-1c-0.2-1.2-0.4-2.4-0.6-3.6l-0.4-1.9c-0.3-1.6-0.6-3.2-0.8-4.8
		c-0.2-1.4-0.4-2.8-0.6-4.2c-0.2-1.1-0.4-2.2-0.6-3.3c-0.1-0.3-0.1-0.6-0.2-1c0-0.1-0.2-0.4-0.3-0.4c-0.6-0.1-1.3-0.1-1.9-0.1
		c0.2,1.3,0.4,2.5,0.7,3.8c0,0.3,0,0.6,0.1,0.9c0.3,1.6,0.7,3.2,1,4.8c0.3,1.3,0.4,2.6,0.6,4c0.3,1.8,0.5,3.7,0.8,5.5
		c0.1,0.9,0.3,1.8,0.4,2.8c0.4,1.7,0.8,3.5,1.1,5.2c0.2,1.2,0.4,2.3,0.6,3.5c0.2,1.1,0.4,2.1,0.6,3.2c0.2,1.1,0.3,2.1,0.5,3.2
		c0.1,0.5,0.1,1,0.2,1.4c0.2,1.1,0.4,2.3,0.6,3.4c0.2,1.3,0.5,2.5,0.7,3.8c0.1,0.5,0.1,1.1,0.2,1.6c0.3,1.2,0.6,2.4,0.9,3.6
		c0.4,2,0.7,4,1,5.9c0.1,0.4,0.1,0.8,0.2,1.1c0,0.1,0,0.2,0,0.3c0,0.2,0,0.3,0,0.5c-0.3-0.1-0.6-0.3-0.9-0.4
		c-0.1,0.1-0.1,0.2-0.2,0.3c0.1-0.1,0.2-0.2,0.2-0.3c-0.8-0.4-1.7-0.8-2.5-1.2c-0.4-0.1-0.8-0.3-1.3-0.4c-1.9-0.7-3.7-1.4-5.6-2.1
		c-0.2-0.1-0.4-0.1-0.7-0.1c-0.3-0.2-0.7-0.3-1-0.5c-0.1,0-0.3,0-0.4,0c-1.3-0.4-2.7-0.9-4-1.3c-1.4-0.4-2.9-0.8-4.4-1.2
		c0,0,0-0.1,0-0.1c-0.9-0.1-1.9-0.3-2.8-0.4c-1.8-0.3-3.6-0.7-5.4-1c-1.8-0.2-3.6-0.4-5.5-0.6c-0.2,0-0.4,0-0.6,0
		c-0.8-0.1-1.6-0.2-2.4-0.2c-1.4,0-2.9,0-4.3,0c-0.2,0-0.5,0-0.7,0.1c-0.9,0-1.9,0.1-2.8,0.2c-0.3,0-0.7,0.1-1,0.1
		c-2.2,0.3-4.4,0.7-6.7,1l-2.1,0.4c-1.9,0.6-3.8,1.2-5.7,1.9c-0.6,0.2-1.1,0.4-1.7,0.6c-1.6,0.8-3.2,1.6-4.8,2.4
		c-1.2,0.6-2.4,1.2-3.5,1.9c-0.4,0.3-0.8,0.7-1.2,1c-0.5,0.3-0.9,0.9-1.6,0.4c-1.2-0.8-2.3-1.6-3.5-2.4c-0.5-0.3-1-0.5-1.5-0.8
		c-0.5-0.3-1.1-0.5-1.6-0.8c0,0,0-0.1,0-0.1c-0.7-0.3-1.4-0.6-2.1-0.9c-1.6-0.6-3.3-1.2-4.9-1.8c-0.5-0.2-0.9-0.4-1.4-0.6
		c-0.2,0-0.4-0.1-0.7-0.1c-1.2-0.3-2.5-0.7-3.7-1c0,0-0.1,0.1-0.1,0.1c0,0,0.1-0.1,0.1-0.1c-1.2-0.3-2.4-0.5-3.5-0.8
		c-0.2,0-0.4-0.1-0.6-0.1c-1.8-0.2-3.7-0.4-5.5-0.5c-0.9-0.1-1.9-0.1-2.9-0.2c-0.1,0-0.2,0-0.3,0c-1.7,0-3.3,0.1-5,0.1
		c-1.2,0.1-2.4,0.2-3.6,0.3c-0.6,0.1-1.3,0.2-1.9,0.3c-1.4,0.2-2.9,0.5-4.3,0.7c-0.7,0.1-1.4,0.2-2.1,0.3c-1.4,0.4-2.9,0.8-4.3,1.1
		c-1.1,0.3-2.3,0.6-3.4,0.9c-0.2,0.1-0.4,0.1-0.6,0.1c-2.8,1-5.5,2.1-8.3,3.1c-0.4,0.1-0.9,0.2-1.3,0.3c-0.2,0.1-0.4,0.2-0.5,0.3
		c-1.5,0.8-2.9,1.5-4.4,2.3c0,0.1,0,0.1,0.1,0.2c0-0.1,0-0.1-0.1-0.2c-0.1,0-0.2,0-0.3,0l0.6-2.8c0.1-1,0.2-2,0.4-3
		c0.3-1.5,0.6-3,0.9-4.5c0.5-3,1-6,1.5-8.9c0.2-1.2,0.4-2.4,0.6-3.6c0.2-1.4,0.5-2.8,0.7-4.1c0.2-1.3,0.4-2.6,0.6-3.9
		c0.1-0.9,0.3-1.8,0.5-2.6c0.2-0.9,0.4-1.9,0.5-2.8c0.2-1.3,0.4-2.7,0.6-4c0.2-1.5,0.4-3,0.7-4.5c0.3-1.8,0.6-3.6,1-5.5
		c0.2-0.9,0.4-1.9,0.6-2.8c0.2-1.3,0.4-2.7,0.6-4c0.1-0.4,0.1-0.9,0.2-1.4c-0.7,0.1-1.4,0.2-2.1,0.4c-0.1,0-0.2,0.2-0.2,0.4
		c-0.2,1-0.3,2-0.5,3c-0.1,0.6-0.2,1.1-0.3,1.7c-0.2,0.7-0.3,1.3-0.5,2c-0.3,2.1-0.7,4.3-1,6.4c-0.4,2.6-0.9,5.1-1.3,7.7
		c0,0.1-0.1,0.3-0.1,0.4c-0.3,1.7-0.5,3.5-0.8,5.2c-0.2,1.2-0.5,2.5-0.7,3.7c-0.2,1.2-0.4,2.4-0.6,3.6c-0.1,0.4-0.2,0.8-0.2,1.1
		c-0.3,1.2-0.5,2.5-0.8,3.7c0,0.4,0,0.8-0.1,1.1c-0.1,0.8-0.3,1.7-0.5,2.5c-0.3,1.8-0.6,3.6-0.9,5.4c-0.3,1.6-0.5,3.1-0.8,4.7
		c-0.1,0.5-0.2,1-0.3,1.6l-0.4,2.8c0,0.1,0,0.3,0,0.4c-0.1,0.5-0.2,0.9-0.3,1.4c-0.2,1.1-0.4,2.2-0.6,3.3c0,0.2,0.2,0.4,0.3,0.6
		c0.4-0.2,0.8-0.5,1.2-0.6c2.7-0.7,5.5-1.4,8.2-2.1c0.3-0.1,0.6-0.2,0.9-0.3c-0.1-0.2-0.2-0.4-0.3-0.6c-0.2,0-0.4,0.1-0.6,0.1
		c-0.1,0.1-0.2,0.2-0.2,0.3c0.1-0.1,0.2-0.2,0.2-0.3c0.2,0,0.4-0.1,0.6-0.1c0.1-0.1,0.3-0.2,0.4-0.2c-0.1,0.1-0.3,0.1-0.4,0.2
		c0.1,0.2,0.2,0.4,0.3,0.6c0.3,0,0.6,0,0.8-0.1c2.1-0.3,4.2-0.6,6.2-1c0.5-0.1,0.9-0.2,1.4-0.2c1.8-0.2,3.5-0.3,5.3-0.4
		c0.6,0,1.2-0.1,1.8-0.1c1.4-0.1,2.7-0.2,4.1-0.3c0.1,0,0.3,0,0.4,0c0.6,0,1.1,0,1.7,0c0.4,0,0.9,0,1.3,0c0.3,0,0.7,0,1,0
		c0.8,0,1.6,0,2.4,0c2,0.1,4.1,0.1,6.1,0.2c1.3,0.1,2.7,0.3,4,0.4c1,0.1,2.1,0.1,3.1,0.2c0.5,0,1,0.1,1.4,0.1
		c0.8,0.1,1.7,0.1,2.5,0.2c2,0.2,4,0.5,6,0.8c1.7,0.3,3.4,0.6,5.1,0.9c0.4,0.2,0.9,0.4,0.9,0.9c0.1,0.1,0.2,0.3,0.2,0.4
		c0.6,0.8,1.1,1.5,1.7,2.3l0.1,0.1c0,0,0.1,0.1,0.1,0.1c0.1,0.1,0.2,0.2,0.3,0.3c0.5,0.3,1,0.6,1.4,0.9c1.7,1.1,3.5,1.3,5.4,1.4
		c0.5,0,1,0,1.5,0c0.1,0,0.2,0,0.3,0c0.3,0,0.5-0.1,0.8-0.1c1.3-0.2,2.6-0.5,3.8-1.3c0.8-0.5,1.5-1,2.3-1.6c0.3-0.4,0.6-0.7,1-1.1
		c0-0.1,0.1-0.1,0.1-0.2c0.1-0.6,0.3-1.2,0.4-1.8c0.3-0.1,0.7-0.3,1-0.4c0.7-0.2,1.3-0.3,2-0.4c2-0.3,3.9-0.5,5.9-0.7
		c1.2-0.2,2.4-0.4,3.6-0.6c1.3-0.2,2.5-0.3,3.8-0.4c0.2,0,0.5,0,0.7,0c0.8-0.1,1.6-0.2,2.3-0.3c2.1-0.1,4.1-0.2,6.2-0.3
		c0.3,0,0.7-0.1,1-0.1c1,0,1.9,0,2.9,0.1c1.5,0,3,0,4.5,0c0.7,0,1.4,0,2.1,0c2.2,0.2,4.4,0.3,6.5,0.5c0.4,0,0.8,0.1,1.1,0.1
		c2.1,0.3,4.1,0.6,6.2,0.9c0.3,0,0.6,0,0.9,0.1c0.1,0,0.2,0,0.3,0c2.1,0.4,4.2,0.7,6.3,1.2c0.8,0.2,1.7,0,2.3,0.7
		c0.3,0,0.7,0.1,1,0.1c0.7,0.2,1.3,0.4,2,0.6c0.1,0,0.2,0.1,0.3,0.1c0.3,0.1,0.7,0.2,1,0.3c0.4,0.1,0.7,0.3,1.1,0.4
		C519,426.3,519.2,426.2,519.1,425.7 M368.9,423.7L368.9,423.7c0-0.1,0-0.2,0-0.3C368.9,423.5,368.9,423.6,368.9,423.7"/>
	<path clip-path="url(#SVGID_6_)" d="M380.5,377.1c0,0.3,0,0.6,0,0.8c-0.2,1-0.4,1.9-0.5,2.9c-0.3,1.5-0.6,3.1-0.9,4.6l-0.1,1
		c0.1-0.1,0.2-0.2,0.3-0.3c-0.1,0.1-0.2,0.2-0.3,0.3c-0.1,0.2-0.1,0.4-0.2,0.6c-0.2,0.7-0.3,1.4-0.4,2.1c-0.2,1.4-0.5,2.7-0.7,4.1
		c0,0.5-0.1,0.9-0.1,1.4c0,0.1,0,0.2,0,0.3c-0.1,0.6-0.2,1.2-0.3,1.8c-0.1,0.4-0.1,0.8-0.2,1.3c-0.2,0.9-0.4,1.7-0.6,2.6
		c-0.1,0.5-0.2,0.9-0.3,1.4c0,0.1,0,0.3,0,0.4l-0.1,0.2c0,0.4,0,0.7,0,1.1c-0.3,1.5-0.5,2.9-0.8,4.4l-0.6,3.3
		c-0.2,1.3-0.4,2.7-0.6,4c-0.1,0.6-0.2,1.3-0.3,2.1c1-0.4,1.7-0.7,2.4-1.1c0.2-0.1,0.3-0.3,0.5-0.4c1.3-0.5,2.6-1.1,3.9-1.6
		c1.7-0.7,3.5-1.3,5.2-1.9c2-0.6,4.1-1.2,6.1-1.7c0.5-0.1,1-0.3,1.6-0.4c0.2,0,0.5-0.1,0.7-0.1l0.6-0.2c0.5-0.1,1-0.2,1.4-0.3
		c0.8-0.1,1.6-0.2,2.4-0.3c0.8-0.2,1.7-0.3,2.5-0.4c0.4-0.1,0.8-0.1,1.2-0.1c1.3-0.1,2.6-0.2,4-0.3c1.5,0,2.9,0.1,4.4,0.1
		c0.1,0,0.2,0,0.3,0c2.1,0.2,4.2,0.4,6.2,0.6c0.7,0.1,1.4,0.2,2.2,0.3c1.5,0.3,3,0.6,4.6,1c1.3,0.4,2.5,0.8,3.8,1.2
		c0.4,0.1,0.9,0.2,1.3,0.4c2,0.9,3.9,1.8,5.9,2.7c0.5,0.2,1,0.5,1.6,0.7c1.2,0.7,2.3,1.4,3.5,2.2c0.8,0.5,1.5,1,2.2,1.5
		c0.1,0,0.3,0,0.4,0c0-0.1,0-0.2,0-0.3c-0.6-0.8-1.2-1.6-1.8-2.4c-0.1-0.2-0.3-0.4-0.4-0.6c-0.3-0.2-0.6-0.4-0.8-0.6
		c-0.1-0.1-0.1-0.2-0.2-0.3c0,0-0.1-0.1-0.1-0.1l-0.3-0.2c-0.1-0.1-0.2-0.2-0.3-0.3c-0.3-0.3-0.7-0.7-1-1c-0.4-0.4-0.8-0.8-1.3-1.1
		c0,0-0.1-0.1,0-0.1c-0.4-0.3-0.8-0.5-1.3-0.8c0,0-0.1-0.1-0.1-0.1c-0.1-0.1-0.2-0.2-0.3-0.3c-1-0.7-2-1.4-3-1.9
		c-1.3-0.7-2.7-1.3-4-2c-2.7-1.1-5.4-2-8.3-2.6c-0.1,0-0.1-0.1-0.2-0.1c-0.6-0.1-1.2-0.2-1.8-0.3c-1.4-0.2-2.8-0.4-4.3-0.5
		c-0.7-0.1-1.3-0.1-2-0.2c-0.2,0-0.3-0.1-0.5-0.1c-2.9,0-5.8-0.1-8.8-0.1c-0.2,0-0.5,0.1-0.7,0.1c-1.5,0.1-3,0.3-4.5,0.4
		c-0.8,0.1-1.6,0.1-2.4,0.1c-1,0.1-1.9,0.3-2.9,0.4c-1.9,0.3-3.7,0.7-5.6,1c-0.4,0-0.7,0.1-1.1,0.1c-1.3,0.3-2.5,0.6-3.9,1
		c0-0.6,0.1-1.1,0.1-1.5c0.1-0.1,0.1-0.2,0.2-0.3c0.1-0.6,0.1-1.1,0.2-1.7c0.1-0.8,0.2-1.5,0.3-2.3c0.2-1.7,0.5-3.3,0.7-5
		c0.1-0.6,0.2-1.2,0.3-1.8c0.1-0.4,0.1-0.8,0.2-1.2c0.3-2,0.6-3.9,0.9-5.9c0.1-0.5,0.1-1,0.2-1.5c0.4-2.6,0.8-5.1,1.2-7.7
		c0,0,0,0-0.1,0c0,0,0,0,0.1,0c0.2-1.3,0.3-2.5,0.5-3.8c0.1-0.9,0.2-1.8,0.3-2.6c0.2-1.1,0.4-2.2,0.6-3.3c0-0.5,0.1-1,0.1-1.6
		c0.3-2.1,0.7-4.3,1-6.4c0.1-0.6,0.3-1.2,0.3-1.9c0.2-1.1,0.3-2.2,0.4-3.3c-0.1,0-0.1-0.1-0.2-0.1c-1,0.5-2.1,1-3.1,1.6
		c-0.6,0.3-1,0.7-0.9,1.4c-0.1,0.8-0.3,1.5-0.4,2.3c-0.5,2.9-1,5.9-1.6,8.8c-0.2,1.2-0.3,2.5-0.5,3.7c-0.2,1.4-0.5,2.8-0.7,4.3
		L380.5,377.1z M385.8,366.7c-0.1-0.2-0.1-0.4-0.1-0.5C385.7,366.4,385.7,366.6,385.8,366.7z M384.5,359.5c0-0.1,0-0.2,0-0.2
		C384.5,359.3,384.5,359.4,384.5,359.5c-0.1,0.5-0.2,1-0.3,1.4C384.3,360.5,384.4,360,384.5,359.5"/>
	<path clip-path="url(#SVGID_6_)" d="M500.4,359.9c0.1,0.3,0.1,0.6,0.2,0.9c0.2,1.2,0.3,2.4,0.5,3.6c0.2,1.2,0.3,2.3,0.5,3.5
		c0,0.3,0.1,0.7,0.1,1c0.1,0.3,0.2,0.7,0.2,1c0,0.2-0.1,0.4,0,0.6c0.1,1,0.3,1.9,0.4,2.9c0.2,1.2,0.4,2.5,0.5,3.7
		c0.2,0.8,0.3,1.5,0.5,2.3c0.2,1.4,0.4,2.8,0.6,4.2c0.1,0.6,0.2,1.2,0.2,1.8c0.2,1,0.4,2.1,0.6,3.1c0.1,0.5,0.2,1,0.3,1.4
		c0.2,1.5,0.4,3,0.6,4.5c0,0.4,0,0.8,0,1.2c0.1,0.4,0.1,0.9,0.2,1.3c0.2,1.5,0.4,2.9,0.6,4.4c0.1,0.4,0.2,0.8,0.3,1.1
		c0.2,1.2,0.4,2.4,0.6,3.5c0,0.2,0,0.5,0,0.7c-0.9-0.2-1.8-0.4-2.7-0.7c-1.9-0.4-3.9-0.8-5.8-1.2c-0.8-0.2-1.6-0.3-2.4-0.5
		c-0.3,0-0.5,0.1-0.8,0.1c-1.5-0.2-3.1-0.4-4.6-0.6c-1.2-0.1-2.3-0.2-3.5-0.3c-1.8,0-3.7-0.1-5.5-0.1c-0.8,0-1.6,0-2.4,0
		c-0.9,0.1-1.8,0.2-2.8,0.3c-1.9,0.2-3.7,0.5-5.6,0.7c-0.3,0-0.6,0-0.8,0c-0.3,0.1-0.6,0.1-0.9,0.2c-1.3,0.3-2.7,0.6-4,0.9
		c-0.9,0.2-1.7,0.5-2.5,0.8c-0.3,0.1-0.6,0.2-0.8,0.3c-0.7,0.3-1.5,0.7-2.2,1c-1.9,0.9-3.8,1.9-5.7,2.8c-0.3,0.2-0.7,0.5-1,0.7
		c-1.2,1-2.5,2-3.7,3c-0.2,0.2-0.4,0.4-0.6,0.7c-0.8,0.8-1.6,1.6-2.3,2.5c-0.4,0.5-0.9,1-1.3,1.5c0.2,0.1,0.3,0.3,0.5,0.4
		c1.5-1,3-2,4.5-3c0.8-0.3,1.5-0.7,2.3-1c0,0,0.1-0.1,0.2-0.1c0.1,0,0.2-0.1,0.3-0.1c0.2-0.1,0.5-0.2,0.7-0.3c1.5-0.7,3.1-1.4,4.6-2
		c1.3-0.5,2.6-0.8,3.9-1.3c0.9-0.2,1.7-0.4,2.6-0.6c0.7-0.2,1.3-0.5,2-0.7l3.4-0.5c0.1,0,0.3-0.1,0.4-0.1c1.5-0.2,3.1-0.4,4.6-0.6
		c1-0.1,1.9,0,2.9,0c0.5,0,0.9,0,1.4,0c1.2,0,2.4,0,3.6,0c1.6,0.2,3.1,0.3,4.7,0.5c1.4,0.2,2.9,0.3,4.3,0.6c2.3,0.5,4.5,1,6.7,1.6
		c2,0.5,4,1.2,6,1.8c0.1,0,0.2,0,0.3,0.1c2,0.8,3.9,1.6,5.9,2.5c0.5,0.2,1,0.5,1.5,0.7l0.9,0.6c0.3,0,0.5,0,0.8,0c0-0.2,0-0.5,0-0.7
		c-0.3-1.8-0.6-3.5-0.9-5.3c-0.2-0.9-0.4-1.9-0.5-2.8c-0.3-2.1-0.6-4.2-0.9-6.3c0,0-0.1,0-0.1,0c-0.3-1.9-0.7-3.9-1-5.8
		c-0.1-0.7-0.2-1.3-0.3-2c-0.1-0.1-0.1-0.2-0.2-0.4c-0.2-1.2-0.4-2.4-0.6-3.6c-0.2-1.3-0.4-2.6-0.6-4c0-0.3-0.1-0.7-0.1-1
		c-0.1-0.2-0.1-0.4-0.2-0.6c-0.1-0.5-0.2-1-0.3-1.6l-0.1-0.3c-0.3-1.8-0.6-3.6-0.8-5.4c-0.2-0.9-0.4-1.8-0.6-2.7
		c-0.4-2.1-0.7-4.3-1-6.4c-0.1-0.8-0.2-1.6-0.4-2.4c-0.2-1.1-0.3-2.2-0.5-3.2c0-0.1-0.1-0.2-0.1-0.3c0-0.1,0-0.3,0-0.4
		c-0.1-0.6-0.2-1.1-0.3-1.7c0-0.3-0.1-0.7-0.1-1c-0.1-0.8-0.2-1.6-0.3-2.4c-0.2-0.1-0.4-0.2-0.5-0.3c-0.7-0.4-1.3-0.8-2-1.2
		c-0.6-0.3-1.1-0.8-1.9-0.4c0.3,1.4,0.5,2.9,0.7,4.3C500.4,359.7,500.4,359.8,500.4,359.9 M471,405.1L471,405.1
		C471,405.1,471,405.1,471,405.1C471,405.1,471,405.1,471,405.1 M510.1,396.5c-0.1,0-0.2,0-0.2,0C509.9,396.5,510,396.5,510.1,396.5
		"/>
	<polygon clip-path="url(#SVGID_6_)" points="440.3,416.3 440.3,416.3 440.3,416.3 	"/>
	<path clip-path="url(#SVGID_6_)" d="M489,347.4c0.1,0.7,0.2,1.4,0.3,2c0.1,0.6,0.2,1.3,0.3,1.9c0.1,0.3,0.1,0.7,0.2,1
		c0.2,1.5,0.4,3,0.6,4.5c0.1,1,0.2,2.1,0.3,3.1c0.3,2.1,0.6,4.3,0.9,6.4c0.1,0.7,0.2,1.4,0.3,2.1c0.2,1.7,0.5,3.3,0.7,5
		c0.2,1.2,0.3,2.3,0.5,3.5c0.1,0.9,0.3,1.8,0.4,2.7c0.3,1.9,0.5,3.9,0.8,5.8c0.1,0.8,0.2,1.6,0.3,2.3c0.1,0.5,0.1,1.1,0.2,1.7
		c-0.3,0.5-0.7,0.2-1,0.2c-1.6-0.1-3.3-0.1-4.9-0.2c-0.5,0-1,0.1-1.5,0.1c-2.5,0.2-5,0.5-7.5,0.7c-0.2,0-0.5,0-0.7,0
		c-1.7,0.3-3.4,0.7-5.1,1c-1.1,0.3-2.3,0.6-3.4,0.9c-1.6,0.6-3.2,1.1-4.8,1.7c-1.2,0.6-2.4,1.3-3.7,1.9c-2.2,1.2-4.3,2.8-6.3,4.4
		c0,0-0.1,0.1-0.1,0.1c-0.7,0.6-1.3,1.1-2,1.7c0,0,0,0.1,0,0.1c0,0.1-0.1,0.1-0.1,0.2l-0.3,0.3c-1.1,1.3-2.3,2.7-3.4,4
		c-0.7,1.1-1.3,2.1-2,3.2c-0.1,0.3-0.3,0.5-0.4,0.8c-0.2,0.7-0.5,1.3-0.7,2c-0.6,1.6-1.2,3.2-1.8,4.7c0,0.3-0.2,0.7,0.4,0.7
		c0.1-0.3,0.1-0.6,0.3-0.9c0.7-0.9,1.4-1.8,2.1-2.8c1.3-1.3,2.7-2.7,4-4l0.1,0l0.1,0c0,0,0-0.1,0-0.1c0.1,0,0.2,0,0.3-0.1
		c0,0,0-0.1,0.1,0c0.2-0.2,0.4-0.5,0.6-0.7c0.3-0.3,0.6-0.6,0.9-0.9l0,0c0.1,0,0.1-0.1,0.2-0.1c0.9-0.6,1.9-1.3,2.8-1.9
		c1.8-1.3,3.8-2.2,5.8-3c0.6-0.3,1.2-0.6,1.8-0.9c0.5-0.2,1-0.3,1.5-0.5c0.9-0.3,1.8-0.7,2.8-1c0.8-0.2,1.7-0.3,2.5-0.4
		c1-0.2,2-0.4,3.1-0.6c1.1-0.2,2.3-0.3,3.4-0.5c0.4-0.1,0.9-0.1,1.3-0.1c0.1-0.1,0.2-0.1,0.4-0.2c1.5-0.1,3-0.2,4.5-0.3
		c1.3,0,2.6,0.1,3.9,0.1c0.7,0,1.4,0.1,2.1,0.1c0,0,0.1,0,0.1,0c1.7,0.2,3.3,0.3,5,0.5c0.4,0.1,0.9,0.1,1.3,0.2
		c1.2,0.1,2.4,0.2,3.6,0.4c1.1,0.2,2.2,0.4,3.3,0.7c0.6,0.1,0.8,0.1,0.7-0.5c-0.1-1.2-0.3-2.4-0.5-3.6c-0.2-1.1-0.3-2.2-0.5-3.3
		c-0.2-1.5-0.5-2.9-0.7-4.4c-0.2-1.2-0.2-2.4-0.3-3.6c-0.1-0.1-0.2-0.2-0.2-0.4c-0.1-0.8-0.2-1.5-0.3-2.3c-0.3-2.2-0.6-4.4-0.9-6.6
		c-0.3-1.8-0.6-3.6-0.9-5.4c-0.2-0.1-0.5-0.1-0.7-0.2c0-0.2-0.1-0.4-0.1-0.6c0,0.2,0.1,0.4,0.1,0.6c0.2,0.1,0.4,0.1,0.7,0.2
		c-0.1-0.9-0.2-1.7-0.4-2.6c-0.1-0.3-0.1-0.6-0.2-1c-0.2-1.4-0.5-2.8-0.7-4.2c-0.1-1.2-0.2-2.4-0.3-3.6c-0.2-1-0.4-2.1-0.5-3.1
		c-0.3-1.8-0.5-3.5-0.8-5.3c-0.3-1.8-0.5-3.6-0.8-5.4c-0.1-0.9-0.2-1.9-0.2-2.7c-1.9-0.3-3.6-0.6-5.4-0.8c-0.7-0.1-1.3,0.1-2,0.1
		c0,0.1,0,0.2,0,0.3c0.2,1.4,0.4,2.7,0.6,4.1C488.9,347.3,489,347.3,489,347.4 M463.9,402c0,0-0.1,0-0.1,0
		C463.8,402,463.8,402,463.9,402c1.2-0.4,2.3-0.8,3.5-1.3C466.2,401.1,465,401.5,463.9,402 M474.7,391.9c-0.1,0-0.1,0-0.2,0
		C474.6,391.9,474.6,391.9,474.7,391.9 M489.2,398.8L489.2,398.8c0.7,0.1,1.5,0.1,2.2,0.2C490.6,398.9,489.9,398.9,489.2,398.8"/>
	<path clip-path="url(#SVGID_6_)" d="M444.3,368.9c0,2.4,0,4.8,0,7.2c0,0.4,0,0.8-0.1,1.1c0,2.8,0,5.6,0,8.4c0,2.5,0,5.1,0,7.6
		c0,0.3,0,0.5,0,0.8c0,0,0,0.1,0,0.1c0,2.7,0,5.3,0,8c0,0.3,0.1,0.7,0.1,1c0,0.8,0,1.6,0,2.4c0,1.9,0,3.8,0,5.7c0,0.1,0,0.2,0,0.3
		c0,0.8,0,1.6,0,2.3c0,0.5-0.1,0.9-0.1,1.4c0,0.6,0.1,1.1,0.1,1.7c0,0,0.1,0,0.1,0l1-4.8c0.2-0.6,0.5-1.1,0.7-1.7
		c0.2-0.6,0.5-1.2,0.7-1.8c0.3-0.7,0.7-1.5,1-2.2c0.1-0.2,0.2-0.4,0.3-0.6c0.1-0.2,0.2-0.3,0.3-0.5l1.4-2.6c0.1-0.2,0.2-0.5,0.4-0.6
		c0.9-1.1,1.8-2.2,2.7-3.3c0,0,0.1,0,0.1,0c0.5-0.5,1-1,1.5-1.5c0.8-0.8,1.5-1.5,2.3-2.3l0,0c0.4-0.3,0.7-0.6,1.1-0.9
		c1.3-0.8,2.5-1.7,3.8-2.5c2.6-1.6,5.4-2.8,8.2-3.8c1.9-0.6,3.8-1.2,5.7-1.7c1.2-0.3,2.4-0.4,3.5-0.6c0.4,0,0.9-0.1,1.3-0.1
		c1-0.2,2.1-0.3,3.1-0.5c1.5-0.1,2.9-0.1,4.4-0.2c0.7,0,1.4,0,2.1,0c0.8,0,0.8-0.5,0.7-1c-0.2-2.1-0.5-4.2-0.7-6.4
		c-0.1-0.9-0.3-1.8-0.4-2.7c-0.2-1.5-0.5-2.9-0.6-4.4c-0.1-0.7-0.1-1.3-0.2-2c-0.3-2.3-0.7-4.7-1-7c0-0.2,0-0.5,0-0.7
		c0,0,0-0.1,0-0.1c-0.3-2-0.6-4.1-0.8-6.1c-0.3-2.4-0.6-4.8-0.9-7.2c-0.2-1.3-0.4-2.7-0.5-4c-0.2-1.8-0.5-3.5-0.7-5.3
		c0-0.2,0-0.4,0-0.6c0-0.1,0-0.2,0-0.3c-0.1-0.7-0.2-1.4-0.2-2.1c-0.1-0.2-0.1-0.4-0.2-0.7c-0.2-1-0.3-1.9-0.5-2.9
		c-0.2-1.3-0.4-2.7-0.5-4c0-0.5-0.3-0.5-0.6-0.5c-1.5,0.2-3.1,0.4-4.6,0.7c-0.4,0.1-0.9,0.2-1.3,0.3c-2.2,0.7-4.4,1.4-6.7,2.1
		c-2.1,1.1-4.3,2.2-6.4,3.3c-0.8,0.5-1.7,0.9-2.5,1.4l0,0.1l-0.1,0c-0.9,0.7-1.9,1.4-2.8,2.1c-0.6,0.5-1.3,0.9-1.9,1.5
		c-1.1,1-2.2,2-3.3,3c-0.6,0.7-1.1,1.4-1.7,2.1c-1.4,1.9-2.8,3.8-4.1,5.7c-0.8,1.2-1.6,2.5-2.2,3.8c-0.7,1.6-1.4,3.3-1.1,5.2
		c0,0.7-0.1,1.4-0.1,2.1c0,0.1,0,0.2,0,0.3c0,2.7,0.1,5.5,0.1,8.2C444.3,368.7,444.3,368.8,444.3,368.9 M483.1,384.4
		c0.1,0,0.2,0,0.3,0C483.3,384.3,483.2,384.3,483.1,384.4z M456.9,394.8c0,0,0-0.1-0.1-0.1C456.9,394.7,456.9,394.8,456.9,394.8"/>
	<path clip-path="url(#SVGID_6_)" d="M387.2,379c-0.3,2-0.6,4.1-1,6.1c0,0.3,0,0.6,0,0.8c0,0.1,0,0.2,0,0.3
		c-0.2,1.4-0.4,2.7-0.6,4.1c-0.2,1.2-0.4,2.5-0.6,3.7c0,0.4-0.1,0.8-0.1,1.2c-0.2,1.3-0.4,2.6-0.5,3.9c-0.1,0.7-0.2,1.3-0.3,2.1
		c0.5,0,0.9-0.1,1.3-0.1c1.5-0.6,3.2-0.6,4.8-0.8c1.2-0.1,2.3-0.4,3.4-0.5c2.5-0.2,4.9-0.4,7.4-0.6c0.4,0,0.9,0,1.3,0l3.4,0l0-0.1
		c1.7,0.1,3.3,0.2,5,0.3c0.6,0,1.3,0,1.9,0.1c1.8,0.3,3.6,0.6,5.4,1c0.5,0.1,1,0.3,1.5,0.5c1.3,0.4,2.7,0.8,4,1.2
		c0.2,0.1,0.4,0.1,0.7,0.2c1.3,0.5,2.5,1.1,3.8,1.7c0.3,0.1,0.6,0.1,0.8,0.2c1.7,1.1,3.5,2.1,5.1,3.3c1,0.7,1.9,1.5,2.9,2.3
		c0.3,0.3,0.6,0.5,0.9,0.8l1.6,1.9c0.1,0,0.1,0.1,0.2,0.1c0,0.1,0,0.1,0,0.2c0.7,0.9,1.5,1.8,2.2,2.7c0-0.1,0.1-0.1,0.1-0.2
		c0,0.1-0.1,0.1-0.1,0.2c0.4,0.6,0.7,1.2,1.1,1.8c0-0.2,0.1-0.5,0.1-0.7c0-1,0-2,0-3c0-0.8,0-1.5,0-2.3c0-3,0-6.1,0-9.1
		c0-2.8-0.1-5.6-0.1-8.4c0-1.1,0.1-2.2,0.1-3.3c0,0,0-0.1,0-0.1c0-0.1,0-0.3,0-0.4c0,0,0-0.1,0-0.1c0-1.1,0-2.3,0-3.4
		c0,0,0-0.1,0-0.1c0-0.3,0-0.7,0-1c0-2.7,0-5.5,0-8.2c0-1.2,0-2.4,0-3.5c0,0,0-0.1,0-0.1c0,0,0,0,0,0c0-1.7,0-3.4,0-5.1
		c0-2.7,0-5.3,0-8c0-1.3,0-2.7-0.1-4c0-0.4-0.2-0.7-0.3-1.1c-0.9-0.9-1.9-1.8-2.8-2.6c-0.5-0.5-1-0.9-1.5-1.3
		c-0.5-0.4-1-0.7-1.5-1.1c-2.9-2-6-3.6-9.1-5.2c-1.1-0.4-2.3-0.8-3.4-1.2c-0.2-0.1-0.5-0.1-0.7-0.1c-0.3-0.2-0.7-0.3-1-0.5
		c-0.2-0.1-0.4-0.1-0.6-0.2c-0.9-0.2-1.7-0.4-2.6-0.7c-0.1,0-0.2,0-0.3,0c-0.9-0.2-1.8-0.4-2.7-0.6c-1.8-0.2-3.6-0.4-5.4-0.6
		c-0.6,0-1.1-0.1-1.7-0.1c-0.8,0-1.6,0.1-2.4,0.1c-1.5,0.1-3,0.1-4.5,0.2c-2.5,0.4-4.9,0.8-7.4,1.2c-0.3,0.1-0.7,0.1-1,0.2
		c-0.4,0.1-0.7,0.2-1.1,0.2l-0.6,0.1l0,0.3c0,0.6,0,1.3-0.1,1.9c-0.2,1.9-0.5,3.8-0.8,5.6c-0.3,2.2-0.6,4.4-1,6.6
		c-0.1,0.8-0.3,1.6-0.4,2.4c0,0.5-0.1,1-0.1,1.6c-0.1,0.6-0.2,1.2-0.3,1.8c-0.1,0.9-0.2,1.9-0.4,2.8c-0.1,0.5-0.2,1.1-0.3,1.6
		c0,0.5,0,1-0.1,1.5c-0.4,2.6-0.8,5.2-1.2,7.8C387.3,377.8,387.2,378.4,387.2,379"/>
	<path clip-path="url(#SVGID_6_)" fill="#FFFFFF" d="M538.8,251.8v229.9H308.9C308.9,354.7,411.8,251.8,538.8,251.8"/>
	<path clip-path="url(#SVGID_6_)" fill="#00B99E" d="M513.1,431.1c-0.1-0.7-0.3-1.3-0.4-2c-0.2-1.4-0.5-2.7-0.7-4.1
		c-0.1-0.7-0.3-1.4-0.4-2.2c-0.2-1.3-0.5-2.6-0.7-3.9c-0.1-0.9-0.2-1.9-0.2-2.8c-0.1-0.4-0.3-0.8-0.3-1.3c-0.4-2.3-0.7-4.6-1.1-6.8
		c-0.2-1-0.4-1.9-0.6-2.9c-0.3-1.6-0.6-3.1-0.8-4.7c-0.1-0.3,0-0.6-0.1-0.9c-0.1-0.2-0.2-0.4-0.2-0.6c-0.2-1.7-0.4-3.3-0.7-5
		c-0.2-1.1-0.4-2.1-0.6-3.2c-0.1-0.5-0.2-1-0.2-1.6c0-0.3-0.1-0.6-0.1-1c-0.2-1.2-0.4-2.4-0.6-3.6l-0.4-1.9
		c-0.3-1.6-0.6-3.2-0.8-4.8c-0.2-1.4-0.4-2.8-0.6-4.2c-0.2-1.1-0.4-2.2-0.6-3.3c-0.1-0.3-0.1-0.6-0.2-1c0-0.1-0.2-0.4-0.3-0.4
		c-0.6-0.1-1.3-0.1-1.9-0.1c0.2,1.3,0.4,2.5,0.7,3.8c0,0.3,0,0.6,0.1,0.9c0.3,1.6,0.7,3.2,1,4.8c0.3,1.3,0.4,2.6,0.6,4
		c0.3,1.8,0.5,3.7,0.8,5.5c0.1,0.9,0.3,1.8,0.4,2.8c0.4,1.7,0.8,3.5,1.1,5.2c0.2,1.2,0.4,2.3,0.6,3.5c0.2,1.1,0.4,2.1,0.6,3.2
		c0.2,1.1,0.3,2.1,0.5,3.2c0.1,0.5,0.1,1,0.2,1.4c0.2,1.1,0.4,2.3,0.6,3.4c0.2,1.3,0.5,2.5,0.7,3.8c0.1,0.5,0.1,1.1,0.2,1.6
		c0.3,1.2,0.6,2.4,0.9,3.6c0.4,2,0.7,4,1,5.9c0.1,0.4,0.1,0.8,0.2,1.1c0,0.1,0,0.2,0,0.3c0,0.2,0,0.3,0,0.5
		c-0.3-0.1-0.6-0.3-0.9-0.4c-0.1,0.1-0.1,0.2-0.2,0.3c0.1-0.1,0.2-0.2,0.2-0.3c-0.8-0.4-1.7-0.8-2.5-1.2c-0.4-0.1-0.8-0.3-1.3-0.4
		c-1.9-0.7-3.7-1.4-5.6-2.1c-0.2-0.1-0.4-0.1-0.7-0.1c-0.3-0.2-0.7-0.3-1-0.5c-0.1,0-0.3,0-0.4,0c-1.3-0.4-2.7-0.9-4-1.3
		c-1.4-0.4-2.9-0.8-4.4-1.2c0,0,0-0.1,0-0.1c-0.9-0.1-1.9-0.3-2.8-0.4c-1.8-0.3-3.6-0.7-5.4-1c-1.8-0.2-3.6-0.4-5.5-0.6
		c-0.2,0-0.4,0-0.6,0c-0.8-0.1-1.6-0.2-2.4-0.2c-1.4,0-2.9,0-4.3,0c-0.2,0-0.5,0-0.7,0.1c-0.9,0-1.9,0.1-2.8,0.2
		c-0.3,0-0.7,0.1-1,0.1c-2.2,0.3-4.4,0.7-6.7,1l-2.1,0.4c-1.9,0.6-3.8,1.2-5.7,1.9c-0.6,0.2-1.1,0.4-1.7,0.6
		c-1.6,0.8-3.2,1.6-4.8,2.4c-1.2,0.6-2.4,1.2-3.5,1.9c-0.4,0.3-0.8,0.7-1.2,1c-0.5,0.3-0.9,0.9-1.6,0.4c-1.2-0.8-2.3-1.6-3.5-2.4
		c-0.5-0.3-1-0.5-1.5-0.8c-0.5-0.3-1.1-0.5-1.6-0.8c0,0,0-0.1,0-0.1c-0.7-0.3-1.4-0.6-2.1-0.9c-1.6-0.6-3.3-1.2-4.9-1.8
		c-0.5-0.2-0.9-0.4-1.4-0.6c-0.2,0-0.4-0.1-0.7-0.1c-1.2-0.3-2.5-0.7-3.7-1c0,0-0.1,0.1-0.1,0.1c0,0,0.1-0.1,0.1-0.1
		c-1.2-0.3-2.4-0.5-3.5-0.8c-0.2,0-0.4-0.1-0.6-0.2c-1.8-0.2-3.7-0.4-5.5-0.5c-0.9-0.1-1.9-0.1-2.9-0.2c-0.1,0-0.2,0-0.3,0
		c-1.7,0-3.3,0.1-5,0.1c-1.2,0.1-2.4,0.2-3.6,0.3c-0.6,0.1-1.3,0.2-1.9,0.3c-1.4,0.2-2.9,0.5-4.3,0.7c-0.7,0.1-1.4,0.2-2.1,0.3
		c-1.4,0.4-2.9,0.8-4.3,1.1c-1.1,0.3-2.3,0.6-3.4,0.9c-0.2,0.1-0.4,0.1-0.6,0.1c-2.8,1-5.5,2.1-8.3,3.1c-0.4,0.1-0.9,0.2-1.3,0.3
		c-0.2,0.1-0.4,0.2-0.5,0.3c-1.5,0.8-2.9,1.5-4.4,2.3c0,0.1,0,0.1,0.1,0.2c0-0.1,0-0.1-0.1-0.2l-0.3,0l0.6-2.8c0.1-1,0.2-2,0.4-3
		c0.3-1.5,0.6-3,0.9-4.5c0.5-3,1-6,1.5-8.9c0.2-1.2,0.4-2.4,0.6-3.6c0.2-1.4,0.5-2.8,0.7-4.1c0.2-1.3,0.4-2.6,0.6-3.9
		c0.1-0.9,0.3-1.8,0.5-2.6c0.2-0.9,0.4-1.9,0.5-2.8c0.2-1.3,0.4-2.7,0.6-4c0.2-1.5,0.4-3,0.7-4.5c0.3-1.8,0.6-3.6,1-5.5
		c0.2-0.9,0.4-1.9,0.6-2.8c0.2-1.3,0.4-2.7,0.6-4c0.1-0.4,0.1-0.9,0.2-1.4c-0.7,0.1-1.4,0.2-2.1,0.4c-0.1,0-0.2,0.2-0.2,0.4
		c-0.2,1-0.3,2-0.5,3c-0.1,0.6-0.2,1.1-0.3,1.7c-0.2,0.7-0.3,1.3-0.5,2c-0.3,2.1-0.7,4.3-1,6.4c-0.4,2.6-0.9,5.1-1.3,7.7
		c0,0.1-0.1,0.3-0.1,0.4c-0.3,1.7-0.5,3.5-0.8,5.2c-0.2,1.2-0.5,2.5-0.7,3.7c-0.2,1.2-0.4,2.4-0.6,3.6c-0.1,0.4-0.2,0.8-0.2,1.1
		c-0.3,1.2-0.5,2.5-0.8,3.7c0,0.4,0,0.8-0.1,1.1c-0.1,0.8-0.3,1.7-0.5,2.5c-0.3,1.8-0.6,3.6-0.9,5.4c-0.3,1.6-0.5,3.1-0.8,4.7
		c-0.1,0.5-0.2,1-0.3,1.6l-0.4,2.8l0,0.4c-0.1,0.5-0.2,0.9-0.3,1.4c-0.2,1.1-0.4,2.2-0.6,3.3c0,0.2,0.2,0.4,0.3,0.6
		c0.4-0.2,0.8-0.5,1.2-0.6c2.7-0.7,5.5-1.4,8.2-2.1c0.3-0.1,0.6-0.2,0.9-0.3c-0.1-0.2-0.2-0.4-0.3-0.6c-0.2,0-0.4,0.1-0.6,0.1
		c-0.1,0.1-0.2,0.2-0.2,0.3c0.1-0.1,0.2-0.2,0.2-0.3c0.2,0,0.4-0.1,0.6-0.1c0.1-0.1,0.3-0.2,0.4-0.2c-0.1,0.1-0.3,0.1-0.4,0.2
		c0.1,0.2,0.2,0.4,0.3,0.6c0.3,0,0.6,0,0.8-0.1c2.1-0.3,4.2-0.6,6.2-1c0.5-0.1,0.9-0.2,1.4-0.2c1.8-0.2,3.5-0.3,5.3-0.4
		c0.6,0,1.2-0.1,1.8-0.1c1.4-0.1,2.7-0.2,4.1-0.3c0.1,0,0.3,0,0.4,0c0.6,0,1.1,0,1.7,0c0.4,0,0.9,0,1.3,0c0.3,0,0.7,0,1,0
		c0.8,0,1.6,0,2.4,0l6.1,0.2c1.3,0.1,2.7,0.3,4,0.4c1,0.1,2.1,0.1,3.1,0.2c0.5,0,1,0.1,1.4,0.1c0.8,0.1,1.7,0.1,2.5,0.2
		c2,0.2,4,0.5,6,0.8c1.7,0.3,3.4,0.6,5.1,0.9c0.4,0.2,0.9,0.4,0.9,0.9c0.1,0.1,0.2,0.3,0.2,0.4l1.7,2.3c0,0,0.1,0.1,0.1,0.1
		c0,0,0.1,0.1,0.1,0.1c0.1,0.1,0.2,0.2,0.3,0.3c0.5,0.3,1,0.6,1.4,0.9c1.7,1.1,3.5,1.3,5.4,1.4c0.5,0,1,0,1.5,0c0.1,0,0.2,0,0.3,0
		c0.3,0,0.5-0.1,0.8-0.1c1.3-0.2,2.6-0.5,3.8-1.3c0.8-0.5,1.5-1,2.3-1.6c0.3-0.4,0.6-0.7,1-1.1c0-0.1,0.1-0.1,0.1-0.2
		c0.1-0.6,0.3-1.2,0.4-1.8c0.3-0.1,0.7-0.3,1-0.4c0.7-0.2,1.3-0.3,2-0.4c2-0.3,3.9-0.5,5.9-0.7c1.2-0.2,2.4-0.4,3.6-0.6
		c1.3-0.2,2.5-0.3,3.8-0.4c0.2,0,0.5,0,0.7,0c0.8-0.1,1.6-0.2,2.3-0.3c2.1-0.1,4.1-0.2,6.2-0.3c0.3,0,0.7-0.1,1-0.1
		c1,0,1.9,0,2.9,0.1c1.5,0,3,0,4.5,0c0.7,0,1.4,0,2.1,0c2.2,0.2,4.4,0.3,6.5,0.5c0.4,0,0.8,0.1,1.1,0.1c2.1,0.3,4.1,0.6,6.2,0.9
		c0.3,0,0.6,0,0.9,0.1c0.1,0,0.2,0,0.3,0c2.1,0.4,4.2,0.7,6.3,1.2c0.8,0.2,1.7,0,2.3,0.7c0.3,0,0.7,0.1,1,0.1c0.7,0.2,1.3,0.4,2,0.6
		c0.1,0,0.2,0.1,0.3,0.1c0.3,0.1,0.7,0.2,1,0.3c0.4,0.1,0.7,0.3,1.1,0.4C513,431.7,513.2,431.6,513.1,431.1 M362.9,429.1
		L362.9,429.1c0-0.1,0-0.2,0-0.3C362.9,428.9,362.9,429,362.9,429.1"/>
	<path clip-path="url(#SVGID_6_)" fill="#00B99E" d="M374.5,382.5c0,0.3,0,0.6,0,0.8c-0.2,1-0.4,1.9-0.5,2.9
		c-0.3,1.5-0.6,3.1-0.9,4.6c0,0.3-0.1,0.7-0.1,1c0.1-0.1,0.2-0.2,0.3-0.3c-0.1,0.1-0.2,0.2-0.3,0.3c-0.1,0.2-0.1,0.4-0.2,0.6
		c-0.2,0.7-0.3,1.4-0.4,2.1c-0.2,1.4-0.5,2.7-0.7,4.1c0,0.5-0.1,0.9-0.1,1.4c0,0.1,0,0.2,0,0.3c-0.1,0.6-0.2,1.2-0.3,1.8
		c-0.1,0.4-0.1,0.8-0.2,1.3c-0.2,0.9-0.4,1.7-0.6,2.6c-0.1,0.5-0.2,0.9-0.3,1.4c0,0.1,0,0.3,0,0.4l-0.1,0.2c0,0.4,0,0.7,0,1.1
		c-0.3,1.5-0.5,2.9-0.8,4.4c-0.2,1.1-0.4,2.2-0.6,3.3c-0.2,1.3-0.4,2.7-0.6,4c-0.1,0.6-0.2,1.3-0.3,2.1c1-0.4,1.7-0.7,2.4-1.1
		c0.2-0.1,0.3-0.3,0.5-0.4c1.3-0.5,2.6-1.1,3.9-1.6c1.7-0.7,3.5-1.3,5.2-1.9c2-0.6,4.1-1.2,6.1-1.7c0.5-0.1,1-0.3,1.6-0.4
		c0.2,0,0.5-0.1,0.7-0.1l0.6-0.2c0.5-0.1,1-0.2,1.4-0.3c0.8-0.1,1.6-0.2,2.4-0.3c0.8-0.2,1.7-0.3,2.5-0.4c0.4-0.1,0.8-0.1,1.2-0.1
		c1.3-0.1,2.6-0.2,4-0.3c1.5,0,2.9,0.1,4.4,0.1c0.1,0,0.2,0,0.3,0c2.1,0.2,4.2,0.4,6.2,0.6c0.7,0.1,1.4,0.2,2.2,0.3
		c1.5,0.3,3,0.6,4.6,1c1.3,0.4,2.5,0.8,3.8,1.2c0.4,0.1,0.9,0.2,1.3,0.4c2,0.9,3.9,1.8,5.9,2.7c0.5,0.2,1,0.5,1.6,0.7
		c1.2,0.7,2.3,1.4,3.5,2.2c0.8,0.5,1.5,1,2.2,1.5c0.1,0,0.3,0,0.4,0c0-0.1,0-0.2,0-0.3c-0.6-0.8-1.2-1.6-1.8-2.4
		c-0.1-0.2-0.3-0.4-0.4-0.6c-0.3-0.2-0.6-0.4-0.8-0.6c-0.1-0.1-0.1-0.2-0.2-0.3c0,0-0.1-0.1-0.1-0.1c-0.1-0.1-0.2-0.1-0.3-0.2
		c-0.1-0.1-0.2-0.2-0.3-0.3c-0.3-0.3-0.7-0.7-1-1c-0.4-0.4-0.8-0.8-1.3-1.1c0,0-0.1-0.1,0-0.1c-0.4-0.3-0.8-0.5-1.3-0.8
		c0,0-0.1-0.1-0.1-0.1c-0.1-0.1-0.2-0.2-0.3-0.3c-1-0.7-2-1.4-3-1.9c-1.3-0.7-2.7-1.3-4-2c-2.7-1.1-5.4-2-8.3-2.6
		c-0.1,0-0.1-0.1-0.2-0.1c-0.6-0.1-1.2-0.2-1.8-0.3c-1.4-0.2-2.8-0.4-4.3-0.5c-0.7-0.1-1.3-0.1-2-0.2c-0.2,0-0.3-0.1-0.5-0.1
		c-2.9,0-5.8-0.1-8.8-0.1c-0.2,0-0.5,0.1-0.7,0.1c-1.5,0.1-3,0.3-4.5,0.4c-0.8,0.1-1.6,0.1-2.4,0.1c-1,0.1-1.9,0.3-2.9,0.4
		c-1.9,0.3-3.7,0.7-5.6,1c-0.4,0-0.7,0.1-1.1,0.1c-1.3,0.3-2.5,0.6-3.9,1c0-0.6,0.1-1.1,0.1-1.5c0.1-0.1,0.1-0.2,0.2-0.3
		c0.1-0.6,0.1-1.1,0.2-1.7c0.1-0.8,0.2-1.5,0.3-2.3c0.2-1.7,0.5-3.3,0.7-5c0.1-0.6,0.2-1.2,0.3-1.8c0.1-0.4,0.1-0.8,0.2-1.2
		c0.3-2,0.6-3.9,0.9-5.9c0.1-0.5,0.1-1,0.2-1.5c0.4-2.6,0.8-5.1,1.2-7.7c0,0,0,0-0.1,0c0,0,0,0,0.1,0c0.2-1.3,0.3-2.5,0.5-3.8
		c0.1-0.9,0.2-1.8,0.3-2.6c0.2-1.1,0.4-2.2,0.6-3.3c0-0.5,0.1-1,0.1-1.6c0.3-2.1,0.7-4.3,1-6.4c0.1-0.6,0.3-1.2,0.3-1.9
		c0.2-1.1,0.3-2.2,0.4-3.3c-0.1,0-0.1-0.1-0.2-0.1c-1,0.5-2.1,1-3.1,1.6c-0.6,0.3-1,0.7-0.9,1.4c-0.1,0.8-0.3,1.5-0.4,2.3
		c-0.5,2.9-1,5.9-1.6,8.8c-0.2,1.2-0.3,2.5-0.5,3.7c-0.2,1.4-0.5,2.8-0.7,4.3L374.5,382.5z M379.8,372.1c-0.1-0.2-0.1-0.4-0.1-0.5
		C379.7,371.8,379.7,372,379.8,372.1z M378.5,364.9c0-0.1,0-0.2,0-0.2C378.5,364.7,378.5,364.8,378.5,364.9c-0.1,0.5-0.2,1-0.3,1.4
		C378.3,365.9,378.4,365.4,378.5,364.9"/>
	<path clip-path="url(#SVGID_6_)" fill="#00B99E" d="M494.4,365.3c0.1,0.3,0.1,0.6,0.2,0.9c0.2,1.2,0.3,2.4,0.5,3.6
		c0.2,1.2,0.3,2.3,0.5,3.5c0,0.3,0.1,0.7,0.1,1c0.1,0.3,0.2,0.7,0.2,1c0,0.2-0.1,0.4,0,0.6c0.1,1,0.3,1.9,0.4,2.9
		c0.2,1.2,0.4,2.5,0.5,3.7c0.2,0.8,0.3,1.5,0.5,2.3c0.2,1.4,0.4,2.8,0.6,4.2c0.1,0.6,0.2,1.2,0.2,1.8c0.2,1,0.4,2.1,0.6,3.1
		c0.1,0.5,0.2,1,0.3,1.4c0.2,1.5,0.4,3,0.6,4.5c0,0.4,0,0.8,0,1.2c0.1,0.4,0.1,0.9,0.2,1.3c0.2,1.5,0.4,2.9,0.6,4.4
		c0.1,0.4,0.2,0.8,0.3,1.1c0.2,1.2,0.4,2.4,0.6,3.5c0,0.2,0,0.5,0,0.7c-0.9-0.2-1.8-0.4-2.7-0.7c-1.9-0.4-3.9-0.8-5.8-1.2
		c-0.8-0.2-1.6-0.3-2.4-0.5c-0.3,0-0.5,0.1-0.8,0.1c-1.5-0.2-3.1-0.4-4.6-0.6c-1.2-0.1-2.3-0.2-3.5-0.3c-1.8,0-3.7-0.1-5.5-0.1
		c-0.8,0-1.6,0-2.4,0c-0.9,0.1-1.8,0.2-2.8,0.3c-1.9,0.2-3.7,0.5-5.6,0.7c-0.3,0-0.6,0-0.8,0c-0.3,0.1-0.6,0.1-0.9,0.2
		c-1.3,0.3-2.7,0.6-4,0.9c-0.9,0.2-1.7,0.5-2.5,0.8c-0.3,0.1-0.6,0.2-0.8,0.3c-0.7,0.3-1.5,0.7-2.2,1c-1.9,0.9-3.8,1.9-5.7,2.8
		c-0.3,0.2-0.7,0.5-1,0.7c-1.2,1-2.5,2-3.7,3c-0.2,0.2-0.4,0.4-0.6,0.7c-0.8,0.8-1.6,1.6-2.3,2.5c-0.4,0.5-0.9,1-1.3,1.5
		c0.2,0.1,0.3,0.3,0.5,0.4c1.5-1,3-2,4.5-3c0.8-0.3,1.5-0.7,2.3-1c0,0,0.1-0.1,0.2-0.1c0.1,0,0.2-0.1,0.3-0.1
		c0.2-0.1,0.5-0.2,0.7-0.3c1.5-0.7,3.1-1.4,4.6-2c1.3-0.5,2.6-0.8,3.9-1.3c0.9-0.2,1.7-0.4,2.6-0.6c0.7-0.2,1.3-0.5,2-0.7
		c1.1-0.2,2.3-0.3,3.4-0.5c0.1,0,0.3-0.1,0.4-0.1c1.5-0.2,3.1-0.4,4.6-0.6c1-0.1,1.9,0,2.9,0c0.5,0,0.9,0,1.4,0c1.2,0,2.4,0,3.6,0
		c1.6,0.2,3.1,0.3,4.7,0.5c1.4,0.2,2.9,0.3,4.3,0.6c2.3,0.5,4.5,1,6.7,1.6c2,0.5,4,1.2,6,1.8c0.1,0,0.2,0,0.3,0.1
		c2,0.8,3.9,1.6,5.9,2.5c0.5,0.2,1,0.5,1.5,0.7c0.3,0.2,0.6,0.4,0.9,0.6c0.3,0,0.5,0,0.8,0c0-0.2,0-0.5,0-0.7
		c-0.3-1.8-0.6-3.5-0.9-5.3c-0.2-0.9-0.4-1.9-0.5-2.8c-0.3-2.1-0.6-4.2-0.9-6.3c0,0-0.1,0-0.1,0l-1-5.8c-0.1-0.7-0.2-1.3-0.3-2
		c-0.1-0.1-0.1-0.2-0.2-0.4c-0.2-1.2-0.4-2.4-0.6-3.6c-0.2-1.3-0.4-2.6-0.6-4c0-0.3-0.1-0.7-0.1-1c-0.1-0.2-0.1-0.4-0.2-0.6
		c-0.1-0.5-0.2-1-0.3-1.6c0-0.1-0.1-0.2-0.1-0.3c-0.3-1.8-0.6-3.6-0.8-5.4c-0.2-0.9-0.4-1.8-0.6-2.7c-0.4-2.1-0.7-4.3-1-6.4
		c-0.1-0.8-0.2-1.6-0.4-2.4c-0.2-1.1-0.3-2.2-0.5-3.2c0-0.1-0.1-0.2-0.1-0.3c0-0.1,0-0.3,0-0.4c-0.1-0.6-0.2-1.1-0.3-1.7
		c0-0.3-0.1-0.7-0.1-1c-0.1-0.8-0.2-1.6-0.3-2.4c-0.2-0.1-0.4-0.2-0.5-0.3c-0.7-0.4-1.3-0.8-2-1.2c-0.6-0.3-1.1-0.8-1.9-0.4
		c0.3,1.4,0.5,2.9,0.7,4.3C494.4,365.1,494.4,365.2,494.4,365.3 M465,410.5L465,410.5C465,410.5,465,410.5,465,410.5
		C465,410.5,465,410.5,465,410.5 M504.1,401.9c-0.1,0-0.2,0-0.2,0C503.9,401.9,504,401.9,504.1,401.9"/>
	<polygon clip-path="url(#SVGID_6_)" fill="#001733" points="440.3,421.7 440.3,421.7 440.3,421.7 	"/>
	<path clip-path="url(#SVGID_6_)" fill="#00B99E" d="M483,352.8c0.1,0.7,0.2,1.4,0.3,2c0.1,0.6,0.2,1.3,0.3,1.9
		c0.1,0.3,0.1,0.7,0.2,1c0.2,1.5,0.4,3,0.6,4.5c0.1,1,0.2,2.1,0.3,3.1c0.3,2.1,0.6,4.3,0.9,6.4c0.1,0.7,0.2,1.4,0.3,2.1
		c0.2,1.7,0.5,3.3,0.7,5c0.2,1.2,0.3,2.3,0.5,3.5c0.1,0.9,0.3,1.8,0.4,2.7c0.3,1.9,0.5,3.9,0.8,5.8c0.1,0.8,0.2,1.6,0.3,2.3
		c0.1,0.5,0.1,1.1,0.2,1.7c-0.3,0.5-0.7,0.2-1,0.2c-1.6-0.1-3.3-0.1-4.9-0.2c-0.5,0-1,0.1-1.5,0.1c-2.5,0.2-5,0.5-7.5,0.7
		c-0.2,0-0.5,0-0.7,0c-1.7,0.3-3.4,0.7-5.1,1c-1.1,0.3-2.3,0.6-3.4,0.9c-1.6,0.6-3.2,1.1-4.8,1.7c-1.2,0.6-2.4,1.3-3.7,1.9
		c-2.2,1.2-4.3,2.8-6.3,4.4l-0.1,0.1l-2,1.7c0,0,0,0.1,0,0.1c0,0.1-0.1,0.1-0.1,0.2l-0.3,0.3c-1.1,1.3-2.3,2.7-3.4,4
		c-0.7,1.1-1.3,2.1-2,3.2c-0.1,0.3-0.3,0.5-0.4,0.8c-0.2,0.7-0.5,1.3-0.7,2c-0.6,1.6-1.2,3.2-1.8,4.7c0,0.3-0.2,0.7,0.4,0.7
		c0.1-0.3,0.1-0.6,0.3-0.9c0.7-0.9,1.4-1.8,2.1-2.8c1.3-1.3,2.7-2.7,4-4l0.1,0l0.1,0c0,0,0-0.1,0-0.1c0.1,0,0.2,0,0.3-0.1
		c0,0,0-0.1,0.1,0c0.2-0.2,0.4-0.5,0.6-0.7c0.3-0.3,0.6-0.6,0.9-0.9l0,0c0.1,0,0.1-0.1,0.2-0.1c0.9-0.6,1.9-1.3,2.8-1.9
		c1.8-1.3,3.8-2.2,5.8-3c0.6-0.3,1.2-0.6,1.8-0.9c0.5-0.2,1-0.3,1.5-0.5c0.9-0.3,1.8-0.7,2.8-1c0.8-0.2,1.7-0.3,2.5-0.4
		c1-0.2,2-0.4,3.1-0.6c1.1-0.2,2.3-0.3,3.4-0.5c0.4-0.1,0.9-0.1,1.3-0.1c0.1-0.1,0.2-0.2,0.4-0.2c1.5-0.1,3-0.2,4.5-0.3
		c1.3,0,2.6,0.1,3.9,0.1c0.7,0,1.4,0.1,2.1,0.1c0,0,0.1,0,0.1,0c1.7,0.2,3.3,0.3,5,0.5c0.4,0.1,0.9,0.1,1.3,0.2
		c1.2,0.1,2.4,0.2,3.6,0.4c1.1,0.2,2.2,0.4,3.3,0.7c0.6,0.1,0.8,0.1,0.7-0.5c-0.1-1.2-0.3-2.4-0.5-3.6c-0.2-1.1-0.3-2.2-0.5-3.3
		c-0.2-1.5-0.5-2.9-0.7-4.4c-0.2-1.2-0.2-2.4-0.3-3.6c-0.1-0.1-0.2-0.2-0.2-0.4c-0.1-0.8-0.2-1.5-0.3-2.3c-0.3-2.2-0.6-4.4-0.9-6.6
		c-0.3-1.8-0.6-3.6-0.9-5.4c-0.2-0.1-0.5-0.1-0.7-0.2c0-0.2-0.1-0.4-0.1-0.6c0,0.2,0.1,0.4,0.1,0.6c0.2,0.1,0.4,0.1,0.7,0.2
		c-0.1-0.9-0.2-1.7-0.4-2.6c-0.1-0.3-0.1-0.6-0.2-1c-0.2-1.4-0.5-2.8-0.7-4.2c-0.1-1.2-0.2-2.4-0.3-3.6c-0.2-1-0.4-2.1-0.5-3.1
		c-0.3-1.8-0.5-3.5-0.8-5.3c-0.3-1.8-0.5-3.6-0.8-5.4c-0.1-0.9-0.2-1.9-0.2-2.7c-1.9-0.3-3.6-0.6-5.4-0.8c-0.7-0.1-1.3,0.1-2,0.1
		c0,0.1,0,0.2,0,0.3c0.2,1.4,0.4,2.7,0.6,4.1C482.9,352.6,483,352.7,483,352.8 M457.9,407.3c0,0-0.1,0-0.1,0
		C457.8,407.4,457.8,407.3,457.9,407.3c1.2-0.4,2.3-0.8,3.5-1.3C460.2,406.5,459,406.9,457.9,407.3 M468.7,397.3c-0.1,0-0.1,0-0.2,0
		C468.6,397.2,468.6,397.2,468.7,397.3 M483.2,404.2L483.2,404.2c0.7,0.1,1.5,0.1,2.2,0.2C484.6,404.3,483.9,404.3,483.2,404.2"/>
	<path clip-path="url(#SVGID_6_)" fill="#00B99E" d="M438.3,374.3c0,2.4,0,4.8,0,7.2c0,0.4,0,0.8-0.1,1.1c0,2.8,0,5.6,0,8.4
		c0,2.5,0,5.1,0,7.6c0,0.3,0,0.5,0,0.8c0,0,0,0.1,0,0.1c0,2.7,0,5.3,0,8c0,0.3,0.1,0.7,0.1,1c0,0.8,0,1.6,0,2.4c0,1.9,0,3.8,0,5.7
		c0,0.1,0,0.2,0,0.3c0,0.8,0,1.6,0,2.3c0,0.5-0.1,0.9-0.1,1.4c0,0.6,0.1,1.1,0.1,1.7l0.1,0l1-4.8c0.2-0.6,0.5-1.1,0.7-1.7
		c0.2-0.6,0.5-1.2,0.7-1.8c0.3-0.7,0.7-1.5,1-2.2c0.1-0.2,0.2-0.4,0.3-0.6c0.1-0.2,0.2-0.3,0.3-0.5c0.5-0.9,0.9-1.7,1.4-2.6
		c0.1-0.2,0.2-0.5,0.4-0.6c0.9-1.1,1.8-2.2,2.7-3.3c0,0,0.1,0,0.1,0c0.5-0.5,1-1,1.5-1.5c0.8-0.8,1.5-1.5,2.3-2.3l1.1-0.9
		c1.3-0.8,2.5-1.7,3.8-2.5c2.6-1.6,5.4-2.8,8.2-3.8c1.9-0.6,3.8-1.2,5.7-1.7c1.2-0.3,2.4-0.4,3.5-0.6c0.4,0,0.9-0.1,1.3-0.1
		c1-0.2,2.1-0.3,3.1-0.5c1.5-0.1,2.9-0.1,4.4-0.2c0.7,0,1.4,0,2.1,0c0.8,0,0.8-0.5,0.7-1c-0.2-2.1-0.5-4.2-0.7-6.4
		c-0.1-0.9-0.3-1.8-0.4-2.7c-0.2-1.5-0.5-2.9-0.6-4.4c-0.1-0.7-0.1-1.3-0.2-2c-0.3-2.3-0.7-4.7-1-7c0-0.2,0-0.5,0-0.7
		c0,0,0-0.1,0-0.1c-0.3-2-0.6-4.1-0.8-6.1c-0.3-2.4-0.6-4.8-0.9-7.2c-0.2-1.3-0.4-2.7-0.5-4c-0.2-1.8-0.5-3.5-0.7-5.3
		c0-0.2,0-0.4,0-0.6c0-0.1,0-0.2,0-0.3c-0.1-0.7-0.2-1.4-0.2-2.1c-0.1-0.2-0.1-0.4-0.2-0.7c-0.2-1-0.3-1.9-0.5-2.9
		c-0.2-1.3-0.4-2.7-0.5-4c0-0.5-0.3-0.5-0.6-0.5c-1.5,0.2-3.1,0.4-4.6,0.7c-0.4,0.1-0.9,0.2-1.3,0.3c-2.2,0.7-4.4,1.4-6.7,2.1
		l-6.4,3.3c-0.8,0.5-1.7,0.9-2.5,1.4l0,0.1l-0.1,0c-0.9,0.7-1.9,1.4-2.8,2.1c-0.6,0.5-1.3,0.9-1.9,1.5c-1.1,1-2.2,2-3.3,3
		c-0.6,0.7-1.1,1.4-1.7,2.1c-1.4,1.9-2.8,3.8-4.1,5.7c-0.8,1.2-1.6,2.5-2.2,3.8c-0.7,1.6-1.4,3.3-1.1,5.2l-0.1,2.1
		c0,0.1,0,0.2,0,0.3c0,2.7,0.1,5.5,0.1,8.2C438.3,374.1,438.3,374.2,438.3,374.3 M477.1,389.7c0.1,0,0.2,0,0.3,0
		C477.3,389.7,477.2,389.7,477.1,389.7z M450.9,400.2c0,0,0-0.1-0.1-0.1C450.9,400.1,450.9,400.2,450.9,400.2"/>
	<path clip-path="url(#SVGID_6_)" fill="#00B99E" d="M381.2,384.3c-0.3,2-0.6,4.1-1,6.1c0,0.3,0,0.6,0,0.8c0,0.1,0,0.2,0,0.3
		c-0.2,1.4-0.4,2.7-0.6,4.1c-0.2,1.2-0.4,2.5-0.6,3.7c0,0.4-0.1,0.8-0.1,1.2c-0.2,1.3-0.4,2.6-0.5,3.9c-0.1,0.7-0.2,1.3-0.3,2.1
		c0.5,0,0.9-0.1,1.3-0.1c1.5-0.6,3.2-0.6,4.8-0.8c1.2-0.1,2.3-0.4,3.4-0.5c2.5-0.2,4.9-0.4,7.4-0.6c0.4,0,0.9,0,1.3,0
		c1.1,0,2.3,0,3.4,0l0-0.1c1.7,0.1,3.3,0.2,5,0.3c0.6,0,1.3,0,1.9,0.1c1.8,0.3,3.6,0.6,5.4,1c0.5,0.1,1,0.3,1.5,0.5
		c1.3,0.4,2.7,0.8,4,1.2c0.2,0.1,0.4,0.1,0.7,0.2c1.3,0.5,2.5,1.1,3.8,1.7c0.3,0.1,0.6,0.1,0.8,0.2c1.7,1.1,3.5,2.1,5.1,3.3
		c1,0.7,1.9,1.5,2.9,2.3c0.3,0.3,0.6,0.5,0.9,0.8c0.5,0.6,1,1.2,1.6,1.9c0.1,0,0.1,0.1,0.2,0.1c0,0.1,0,0.1,0,0.2
		c0.7,0.9,1.5,1.8,2.2,2.7c0-0.1,0.1-0.1,0.1-0.2c0,0.1-0.1,0.1-0.1,0.2c0.4,0.6,0.7,1.2,1.1,1.8c0-0.2,0.1-0.5,0.1-0.7c0-1,0-2,0-3
		c0-0.8,0-1.5,0-2.3c0-3,0-6.1,0-9.1c0-2.8-0.1-5.6-0.1-8.4c0-1.1,0.1-2.2,0.1-3.3c0,0,0-0.1,0-0.1c0-0.1,0-0.3,0-0.4
		c0,0,0-0.1,0-0.1c0-1.1,0-2.3,0-3.4c0,0,0-0.1,0-0.1c0-0.3,0-0.7,0-1c0-2.7,0-5.5,0-8.2c0-1.2,0-2.4,0-3.5c0,0,0-0.1,0-0.1
		c0,0,0,0,0,0c0-1.7,0-3.4,0-5.1c0-2.7,0-5.3,0-8c0-1.3,0-2.7-0.1-4c0-0.4-0.2-0.7-0.3-1.1c-0.9-0.9-1.9-1.8-2.8-2.6
		c-0.5-0.5-1-0.9-1.5-1.3c-0.5-0.4-1-0.7-1.5-1.1c-2.9-2-6-3.6-9.1-5.2c-1.1-0.4-2.3-0.8-3.4-1.2c-0.2-0.1-0.5-0.1-0.7-0.1l-1-0.5
		c-0.2-0.1-0.4-0.1-0.6-0.2c-0.9-0.2-1.7-0.4-2.6-0.7c-0.1,0-0.2,0-0.3,0c-0.9-0.2-1.8-0.4-2.7-0.6c-1.8-0.2-3.6-0.4-5.4-0.6
		c-0.6,0-1.1-0.1-1.7-0.1c-0.8,0-1.6,0.1-2.4,0.1c-1.5,0.1-3,0.1-4.5,0.2c-2.5,0.4-4.9,0.8-7.4,1.2c-0.3,0.1-0.7,0.1-1,0.2
		c-0.4,0.1-0.7,0.2-1.1,0.2l-0.6,0.1l0,0.3c0,0.6,0,1.3-0.1,1.9c-0.2,1.9-0.5,3.8-0.8,5.6c-0.3,2.2-0.6,4.4-1,6.6
		c-0.1,0.8-0.3,1.6-0.4,2.4c0,0.5-0.1,1-0.1,1.6c-0.1,0.6-0.2,1.2-0.3,1.8c-0.1,0.9-0.2,1.9-0.4,2.8c-0.1,0.5-0.2,1.1-0.3,1.6
		c0,0.5,0,1-0.1,1.5c-0.4,2.6-0.8,5.2-1.2,7.8C381.3,383.2,381.2,383.8,381.2,384.3"/>
	<path clip-path="url(#SVGID_6_)" fill="#FFBC00" d="M531.7,279.4c3.3,63.5,3.9,131.3,4,195l0,4.1l-4.1,0
		c-46.7-0.1-93.3-0.6-139.9-2.1c-15.6-0.5-31.1-1.1-46.6-2c15.5-0.9,31.1-1.4,46.6-2c46.6-1.5,93.3-2,139.9-2.1c0,0-4,4-4,4
		l0.2-48.8C528.3,377.6,529.2,327.4,531.7,279.4"/>
	<path clip-path="url(#SVGID_6_)" fill="#FFBC00" d="M740.5,488.2c-48,2.5-98.2,3.4-146.3,3.9l-48.8,0.2l4-4
		c-0.1,46.7-0.6,93.3-2.1,139.9c-0.5,15.6-1.1,31.1-2,46.6c-0.9-15.5-1.4-31.1-2-46.6c-1.5-46.6-2-93.3-2.1-139.9l0-4.1l4.1,0
		C609.3,484.3,676.9,484.9,740.5,488.2"/>
</g>
</svg>
